<svg width="408" height="408" viewBox="0 0 408 408" xmlns="http://www.w3.org/2000/svg">
 <path d="m204 0c-112.5 0-204 91.51-204 204 0 112.5 91.52 204 204 204s204-91.52 204-204c0-6.628-5.372-12-12-12s-12 5.372-12 12c0 99.25-80.75 180-180 180s-180-80.75-180-180 80.75-180 180-180c39.39 0 76.68 12.44 108 36h-28.01c-6.628 0-12 5.372-12 12s5.372 12 12 12h56c6.628 0 12-5.376 12-12v-56.57c0-6.628-5.372-12-12-12s-12 5.372-12 12v26.58c-35.84-27.48-78.69-42.01-124-42.01zm1.512 60a8 8 0 0 0-8 8 8 8 0 0 0 8 8 8 8 0 0 0 8-8 8 8 0 0 0-8-8zm54.78 88c-2.792-0.0982-5.506 1.277-7.057 3.725l-48 76c-1.556 2.468-1.652 5.579-0.2441 8.135 1.412 2.552 4.092 4.137 7.008 4.137h40v24c0 4.416 3.584 8 8 8s8-3.584 8-8.004v-24h16c4.416 0 8-3.584 8-8s-3.584-8-8-8h-16v-68c0-3.56-2.355-6.692-5.775-7.684-0.639-0.1845-1.287-0.2859-1.932-0.3086zm-95.25 0.7969c-18.24 0-39.53 10.35-39.53 39.53 0 4.416 3.584 8 8 8s8-3.584 8-8c0-21.24 16.46-23.53 23.53-23.53 8.46 0 20.38 6.323 20.38 20.38 0 11.09-14.36 24.24-27.04 35.84-15.28 14-29.72 27.22-29.72 42.98v8h67.91c4.416 0 8-3.584 8-8s-3.584-8-8-8h-49.15c4.436-7.308 13.5-15.61 21.77-23.18 15.84-14.51 32.23-29.52 32.23-47.64 0-22.77-18.5-36.38-36.38-36.38zm86.96 34.85v40.35h-25.48zm-190.5 16.35a8 8 0 0 0-8 8 8 8 0 0 0 8 8 8 8 0 0 0 8-8 8 8 0 0 0-8-8zm284 0a8 8 0 0 0-8 8 8 8 0 0 0 8 8 8 8 0 0 0 8-8 8 8 0 0 0-8-8zm-140 140a8 8 0 0 0-8 8 8 8 0 0 0 8 8 8 8 0 0 0 8-8 8 8 0 0 0-8-8z"/>
</svg>
