<svg width="511.97" height="512" viewBox="0 0 511.97 512" xmlns="http://www.w3.org/2000/svg">
 <path d="m460.43 107.04c2.4062-21.148-2.2422-42.391-13.492-60.848-13.305-21.832-34.297-37.238-59.113-43.387-37.48-9.2891-76.812 5.0156-99.805 35.102-10.168-2.9922-20.918-4.6016-32.039-4.6016-11.117 0-21.871 1.6094-32.035 4.6016-22.992-30.086-62.328-44.387-99.805-35.102-24.816 6.1484-45.809 21.555-59.113 43.387-11.25 18.461-15.898 39.699-13.492 60.848-48.531 29.684-65.941 92.711-38.578 143.34 13.57 25.105 40.176 50.391 69.441 65.984 20.227 10.777 39.848 16.215 57.68 16.215 7.4648 0 14.617-0.96093 21.371-2.875l79.531 147.16v35.141h30.004v-35.141l79.531-147.16c6.7539 1.9141 13.902 2.875 21.375 2.875 17.828 0 37.453-5.4375 57.68-16.215 29.262-15.594 55.867-40.875 69.438-65.984 27.363-50.629 9.9531-113.66-38.578-143.34zm-79.82-75.113c29.445 7.2969 49.512 33.559 50.359 62.598-23.68-6.1367-48.754-4.0273-71.203 6.1133-9.2266-20.59-24.406-37.949-43.336-49.887 16.16-17.02 40.699-24.641 64.18-18.824zm-40.969 115.04c0 24.176-10.359 55.422-26.398 79.598-16.992 25.617-37.863 40.312-57.262 40.312-19.398 0-40.27-14.695-57.262-40.312-16.035-24.176-26.398-55.422-26.398-79.598 0-46.129 37.531-83.66 83.66-83.66 46.129 0 83.66 37.531 83.66 83.66zm-208.29-115.04c23.48-5.8164 48.023 1.8047 64.18 18.824-18.93 11.934-34.109 29.297-43.336 49.887-22.449-10.141-47.523-12.254-71.203-6.1133 0.84766-29.039 20.914-55.301 50.359-62.598zm-34.848 257.96c-23.969-12.773-46.406-33.883-57.156-53.773-20.426-37.793-6.2969-85.16 31.5-105.59 22.918-12.387 50.012-12.469 72.762-0.71094-0.84766 5.5938-1.293 11.32-1.293 17.152 0 30.129 12.031 66.984 31.398 96.18 4.0703 6.1367 8.3398 11.777 12.773 16.914-3.4609 12.754-10.66 29.664-25.316 37.586-15.812 8.5469-39.379 5.7188-64.668-7.7578zm91.34 25.559c9.668-8.3789 17.387-19.625 22.934-33.398 9.6992 6.5703 19.844 11.031 30.199 13.227v118.48zm83.137-20.168c10.359-2.1992 20.5-6.6602 30.199-13.227 5.543 13.77 13.262 25.02 22.934 33.395l-53.133 98.312zm201.63-59.164c-10.75 19.895-33.188 41-57.156 53.773-25.285 13.477-48.855 16.305-64.668 7.7617-14.656-7.9219-21.855-24.836-25.316-37.586 4.4336-5.1406 8.7031-10.781 12.773-16.918 19.367-29.195 31.398-66.051 31.398-96.18 0-5.8281-0.44141-11.555-1.293-17.152 22.75-11.758 49.84-11.676 72.766 0.71094 37.793 20.43 51.922 67.797 31.496 105.59z"/>
</svg>
