<svg width="819" height="664" viewBox="0 0 819 664" xmlns="http://www.w3.org/2000/svg">
 <path d="m142 660 68.7-281-70.6-73.7 56.7-18.7l-123-36.6-73.4-69.2 167 24.5-99.2-45.4-38.1-67.8 286 79.9 85.2 128 169-75.7 74.2 63.1-90.2-8.18-70.3 153-244 90.6-97.7 141 .0729-3.66zm357-53.7c-1.79-.178-7.46-.721-12.6-1.2-41.6-3.92-85.1-17.8-121-38.7-13.8-8-17.1-10.3-16.8-11.7.182-.715 6.45-10.3 13.9-21.4l13.6-20.1 2.16 1.42c23.8 15.7 53.9 28.5 82.2 34.9 30.7 6.93 66 7.94 97.7 2.77 34.5-5.62 68.4-19 98-38.7 29.1-19.3 57.1-48.3 75.4-77.9 47.6-77.1 50.1-176 6.54-254-36.1-65.1-98.6-111-170-126-32.3-6.57-68.3-6.71-101-.37-46.4 9.01-90.2 32.1-126 66.5-4.07 3.87-7.65 7.04-7.95 7.04-.457 0-6.91-6.02-34.6-32.2l-2.01-1.91 6.89-7c37.3-37.8 88.3-66.5 141-79.5 26.2-6.38 42.4-8.22 72.3-8.22 24.4 0 31.6.535 50.8 3.75 75.8 12.7 145 54.6 192 117 54.8 72.4 74.2 167 52.1 256-11.1 44.6-30.8 83.8-60.4 120-9.85 12.1-31.1 33.1-44 43.4-45.7 36.6-97.4 58.1-156 65.2-10 1.2-44.2 2.22-51.2 1.52z" fill="#c0c0c0"/>
</svg>
