<svg viewBox="0 0 512 512" xmlns="http://www.w3.org/2000/svg">
 <path d="m285.51-0.0019531c-5.522 0-10 4.477-10 10 0 62.572-16.045 114.36-47.729 154.32-5.979-4.561-11.775-8.7533-17.311-12.486-29.637-19.989-47.29-24.672-57.156-15.16-0.07 0.06499-0.14294 0.12831-0.21094 0.19531-0.01 0.01-0.0193 0.01834-0.0293 0.02734-6e-3 6e-3 -0.01158 0.01258-0.01758 0.01758-2.527 2.533-4.0867 5.597-4.6777 9.252l-147.6 351.97c-1.57 3.744-0.71866 8.0665 2.1523 10.938 1.914 1.913 4.4722 2.9297 7.0742 2.9297 1.302 0 2.6143-0.25334 3.8633-0.77734l0.029296-0.01172 351.94-147.59c3.337-0.54 6.1714-1.9035 8.5684-4.0605 0.174-0.145 0.337-0.29913 0.5-0.45313 0.064-0.063 0.13231-0.11373 0.19531-0.17773 0.01-0.01 0.01835-0.02225 0.02735-0.03125 0.069-0.068 0.13322-0.14189 0.19921-0.21289 9.511-9.867 4.8249-27.517-15.164-57.152-4.225-6.264-9.0248-12.858-14.301-19.68 19.152-8.872 38.221-15.345 56.953-19.309 5.403-1.143 8.8559-6.4505 7.7129-11.854s-6.4435-8.8569-11.854-7.7129c-21.683 4.588-43.705 12.261-65.729 22.865-12.303-14.673-26.387-30.014-41.582-45.209-16.147-16.146-32.462-31.049-47.961-43.879 13.412-16.959 24.359-35.948 32.641-56.729 12.913-32.401 19.461-69.419 19.461-110.03 0-5.523-4.478-10-10-10zm104.46 0.0039062c-16.542 0-30 13.458-30 30s13.458 30 30 30 30-13.458 30-30-13.458-30-30-30zm-250.78 10c-5.508 0-10 4.492-10 10s4.492 10 10 10 10-4.492 10-10-4.492-10-10-10zm250.78 10c5.514 0 10 4.486 10 10s-4.486 10-10 10-10-4.486-10-10 4.486-10 10-10zm-191.46 15.617c-16.542 0-30 13.458-30 30s13.458 30 30 30 30-13.458 30-30-13.458-30-30-30zm-105 8.002c-5.523 0-10 4.478-10 10v10h-10c-5.523 0-10 4.478-10 10 0 5.523 4.477 10 10 10h10v10c0 5.522 4.477 10 10 10s10-4.478 10-10v-10h10c5.523 0 10-4.478 10-10s-4.477-10-10-10h-10v-10c0-5.522-4.477-10-10-10zm105 11.998c5.514 0 10 4.486 10 10s-4.486 10-10 10-10-4.486-10-10c0-5.513 4.486-10 10-10zm136.69 19.441c-5.508 0-10 4.492-10 10 1e-3 5.507 4.493 10 10 10 5.508 0 10-4.492 10-10s-4.492-10-10-10zm136.77 24.951c-0.33826-0.00776-0.67881 5.9e-4 -1.0234 0.02734-29.973 2.419-71.326 14.332-97.504 40.51-3.905 3.905-3.905 10.238 0 14.143 1.953 1.952 4.5113 2.9277 7.0703 2.9277 2.56 0 5.1173-0.97573 7.0703-2.9277 22.343-22.343 58.544-32.584 84.973-34.717 5.505-0.444 9.6061-5.2675 9.1621-10.771-0.41718-5.1609-4.6742-9.075-9.748-9.1914zm29.762 1.4375c-4.6469-0.19681-8.9471 2.889-10.115 7.5781-1.334 5.359 1.9281 10.785 7.2871 12.119l0.51172 0.13282c0.868 0.233 1.7397 0.34375 2.5977 0.34375 4.414 0 8.4543-2.9442 9.6523-7.4102 1.431-5.334-1.7314-10.818-7.0664-12.25-0.283-0.076-0.57228-0.15161-0.86328-0.22461-0.66987-0.167-1.3401-0.26095-2.0039-0.28906zm-174.22 39.17c-5.522 0-10 4.478-10 10v10h-10.002c-5.522 0-10 4.478-10 10 0 5.523 4.478 10 10 10h10.002v10c0 5.523 4.478 10 10 10 5.523 0 10-4.477 10-10v-10h9.998c5.522 0 10-4.478 10-10s-4.478-10-10-10h-9.998v-10c0-5.522-4.477-10-10-10zm-158.96 11.754c4.65 1.058 15.383 5.0728 36.406 19.967 3.118 2.209 6.3239 4.5699 9.5879 7.0449-0.701 0.722-1.3944 1.4511-2.1074 2.1641-3.905 3.905-3.905 10.237 0 14.143 1.953 1.952 4.5133 2.9297 7.0723 2.9297s5.1183-0.97768 7.0703-2.9297c1.256-1.256 2.4938-2.5275 3.7168-3.8125 15.169 12.539 31.207 27.177 46.928 42.898 13.519 13.519 26.23 27.271 37.504 40.504-1.806 1.003-3.611 2.0244-5.416 3.0664-4.783 2.762-6.4222 8.8782-3.6602 13.66 1.852 3.208 5.2129 5.002 8.6699 5.002 1.696 0 3.4162-0.4328 4.9902-1.3418 2.776-1.604 5.555-3.1435 8.332-4.6465 4.345 5.518 8.3766 10.883 12.018 16.023 14.896 21.023 18.91 31.756 19.967 36.406-4.652-1.059-15.388-5.0728-36.41-19.967-21.74-15.403-47.405-37.577-72.266-62.438-24.86-24.86-47.036-50.526-62.438-72.266-14.895-21.023-18.908-31.758-19.965-36.408zm283.95 21.246c-16.542 0-30 13.458-30 30s13.458 30 30 30 30-13.458 30-30-13.459-30-30-30zm-295.28 3.166c2.896 5.31 6.4832 11.128 10.785 17.506 2.962 4.392 6.2073 8.945 9.6973 13.625 34.207 51.906 33.433 105.04 26.746 140.48-7.111 37.705-22.339 65.309-27.932 72.922l-21.553 9.041c2.054-5.189 3.8638-11.1 5.1758-17.797 8.004-40.853-5.0614-91.364-38.814-150.19l10.82-25.803c8.564 10.305 18.321 24.89 22.273 34.086 1.627 3.787 5.3154 6.0566 9.1914 6.0566 1.317 0 2.6583-0.2644 3.9453-0.8164 5.074-2.181 7.4183-8.0598 5.2383-13.135-5.864-13.644-20.733-34.874-32.107-46.559l16.533-39.426zm295.28 16.834c5.514 0 10 4.486 10 10s-4.486 10-10 10-10-4.486-10-10 4.486-10 10-10zm-230.3 66.555c4.737 5.004 9.6104 10.019 14.609 15.018 14.958 14.957 30.056 28.836 44.52 41-1.434 47.213-23.09 68.726-27.754 72.82l-47.473 19.908c6.855-15.036 13.848-34.776 18.004-56.812 4.642-24.614 6.6828-56.981-1.9062-91.934zm-50.666 22.463c-1.2986 0.02953-2.6138 0.31411-3.873 0.88086-4.88 2.196-7.1389 7.821-5.2129 12.75 1.514 3.963 5.2988 6.4297 9.3398 6.4297 1.096 0 2.2107-0.1805 3.3047-0.5625 5.212-1.824 7.9598-7.5292 6.1348-12.742-0.095-0.271-0.22379-0.59738-0.34179-0.85938-1.7002-3.7778-5.4556-5.9851-9.3516-5.8965zm267.66 1.4219c-5.508 0-10 4.492-10 10s4.492 10 10 10 10-4.493 10-10c0-5.508-4.492-10-10-10zm-327.73 1.8574c31.093 58.95 33.426 98.011 29.391 121.01-4.032 22.984-14.727 34.063-17.768 36.811l-26.352 11.049c5.858-20.854 7.3988-53.956-15.24-97.408l29.969-71.459zm188.77 45.467c6.036 4.608 11.889 8.8404 17.475 12.607 6.381 4.304 12.2 7.8892 17.512 10.785l-47.174 19.781c5.353-11.075 10.08-25.347 12.188-43.174zm168.96 27.674c-5.508 0-10.002 4.494-10.002 10.002s4.494 10 10.002 10c5.507 0 10-4.492 10-10s-4.493-10.002-10-10.002zm-398.19 23.33c8.282 20.761 11.153 40.649 8.3105 58.373-2.087 13.013-6.7279 21.566-8.9609 25.086l-41.678 17.479 42.328-100.94zm355.5 15.23c-5.522 0-10 4.478-10 10v10h-10c-5.522 0-10 4.478-10 10s4.478 10 10 10h10v10c0 5.522 4.478 10 10 10s10-4.478 10-10v-10h10c5.522 0 10-4.478 10-10s-4.477-10-10-10h-10v-10c0-5.522-4.478-10-10-10z"/>
</svg>
