<svg width="512" height="496.96" viewBox="0 0 512 496.96" xmlns="http://www.w3.org/2000/svg">
 <path d="m412.37 0c-2.662 0-5.2127 1.0584-7.0957 2.9414l-40.359 40.367c-3.918 3.919-3.9161 10.273 0.00195 14.193l40.357 40.359c1.96 1.96 4.5297 2.9395 7.0977 2.9395s5.1367-0.98045 7.0957-2.9395l40.369-40.357c1.884-1.882 2.9395-4.4347 2.9395-7.0977-1e-3 -2.662-1.0585-5.2166-2.9395-7.0996l-40.367-40.367c-1.883-1.882-4.4376-2.9395-7.0996-2.9395zm-237.6 1.584c-3.6101-0.015181-7.3978 2.1126-9.1289 5.0723-2.998 5.126-0.75344 10.474 3.6016 13.73 22.432 16.771 50.482 40.105 36.992 71.334-11.981 27.734-43.153 50.043-39.256 83.307 1.878 16.028 11.39 30.521 27.594 34.803 12.502 3.303 17.833-16.054 5.3359-19.357-10.125-2.675-14.123-13.736-13.041-23.436 1.573-14.084 11.591-26.827 19.658-38 9.489-13.142 19.604-27.18 22.492-43.508 2.801-15.839-1.2961-31.789-10.119-45.125-10.176-15.38-24.946-26.45-39.525-37.35-1.3578-1.015-2.9625-1.4638-4.6035-1.4707zm237.6 22.648 26.172 26.172-26.172 26.166-26.166-26.166 26.166-26.172zm-88.592 41.898c-1.6454-2.97e-4 -3.2523 0.44977-4.6055 1.4863-16.022 12.276-26.725 29.884-30.559 49.348-13.101 4.765-24.751 14.387-31.465 26.34-18.046 32.125-6.6433 69.681 11.514 98.885 6.807 10.948 24.179 0.88114 17.332-10.131-11.843-19.049-21.825-41.887-16.654-64.752 2.51-11.096 8.8768-21.495 17.969-27.654 0.876 11.014 3.9686 21.889 9.3516 31.545 7.472 13.402 21.656 24.529 37.328 17.035 12.652-6.049 18.213-21.61 16.602-34.82-1.628-13.342-9.1798-25.428-20.465-32.768-6.288-4.089-13.13-6.24-20.07-6.791 3.432-11.313 9.857-21.707 19.248-28.902 4.296-3.291 6.5786-8.6404 3.5996-13.732-1.7002-2.9068-5.505-5.0872-9.125-5.0879zm-221.6 0.080079c-12.916 0-12.937 20.074 0 20.074 12.917-1e-3 12.939-20.074 0-20.074zm19.611 25.609c-12.916 0-12.937 20.074 0 20.074 12.916 0 12.937-20.074 0-20.074zm-32.131 3.4297c-12.916 0-12.938 20.074 0 20.074 12.917 0 12.938-20.074 0-20.074zm217.49 38.693c0.495 0.02 0.99023 0.04198 1.4902 0.08398 14.709 1.235 28.987 19.855 19.617 33.225-5.463 7.795-11.203-0.7045-14.254-6.1875-4.154-7.465-6.4017-15.976-6.8027-24.469-0.041-0.88-0.04478-1.7653-0.05078-2.6523zm96.77 17.834c-12.916 0-12.937 20.074 0 20.074 12.916 0 12.938-20.074 0-20.074zm19.611 25.609c-12.916 0-12.937 20.074 0 20.074 12.916 0 12.937-20.074 0-20.074zm-32.131 3.4316c-12.916 0-12.938 20.074 0 20.074 12.916-1e-3 12.937-20.074 0-20.074zm-248.86 29.873c-0.39803 0.0166-0.79694 0.0562-1.1953 0.12109-3.185 0.518-5.9281 2.5358-7.3691 5.4238l-11.984 23.998-120.93 242.21c-1.929 3.863-1.1712 8.5261 1.8828 11.58 1.926 1.927 4.4927 2.9395 7.0977 2.9395 1.522 0 3.0565-0.34464 4.4805-1.0566l266.21-132.92c2.888-1.441 4.9068-4.1831 5.4238-7.3691 0.519-3.186-0.52659-6.424-2.8086-8.707l-133.29-133.29c-1.9968-1.9959-4.7255-3.0458-7.5117-2.9297zm358.9 23.98c-4.2637 0.17303-7.7141 3.2394-9.2773 7.375-3.303 8.738-15.727 13.965-24.715 15.137-13.537 1.766-26.728-4.1629-38.688-9.7109-14.188-6.58-28.812-12.859-44.762-12.725-16.05 0.135-31.718 6.5466-44.789 15.561-14.714 10.146-26.535 23.386-38.1 36.861-3.528 4.111-4.039 10.154 0 14.193 3.612 3.612 10.65 4.131 14.195 0 18.57-21.64 43.045-50.187 74.963-46.258 15.07 1.855 28.566 10.265 42.398 15.879 14.218 5.771 29.816 8.4991 44.885 4.5391 14.937-3.926 28.394-13.402 33.965-28.141 1.919-5.07-2.1268-11.005-7.0078-12.346-1.0573-0.29062-2.0844-0.40517-3.0684-0.36523zm-355.73 2.9961 113.58 113.58-61.213 30.562-17.09-41.65c-2.105-5.128-7.9648-7.5806-13.094-5.4766-5.128 2.104-7.5806 7.9677-5.4766 13.096l17.652 43.021-71.225 35.562-19.285-76.25 40.518-81.152 11.148 27.172c1.593 3.881 5.3391 6.2305 9.2891 6.2305 1.269 0 2.5596-0.24191 3.8066-0.75391 5.128-2.104 7.5806-7.9677 5.4766-13.096l-17.811-43.404 3.7188-7.4453zm14.545 70.699c-12.916 0-12.937 20.074 0 20.074 12.916 0 12.937-20.074 0-20.074zm310.35 17.508c-22.392 0-40.609 18.217-40.609 40.609 0 22.397 18.217 40.617 40.609 40.617 22.398 0 40.619-18.22 40.619-40.617 0-22.392-18.221-40.609-40.619-40.609zm0 20.074c11.328 0 20.545 9.2122 20.545 20.535 0 11.328-9.2159 20.545-20.545 20.545-11.323 0-20.535-9.2169-20.535-20.545 0-11.323 9.2132-20.535 20.535-20.535zm-394.79 31.695 14.646 57.904-58.021 28.969 43.375-86.873z"/>
</svg>
