<svg width="475.22" height="512" viewBox="0 0 475.22 512" xmlns="http://www.w3.org/2000/svg">
 <path d="m429.59 425.29v-95.962c3.661-2.28 7.069-5.025 10.152-8.215l5.491-5.681v-89.464c0-33.351-27.134-60.485-60.486-60.485h-41.195v-45.373c16.172-6.09 27.71-21.714 27.71-39.989 0-5.877-1.655-16.473-15.964-40.531-7.159-12.038-14.229-21.993-14.527-22.411l-12.226-17.181-12.227 17.181c-0.298 0.418-7.366 10.374-14.527 22.411-14.31 24.058-15.964 34.654-15.964 40.531 0 18.274 11.538 33.899 27.71 39.988v45.373h-60.925v-45.373c16.172-6.09 27.71-21.714 27.71-39.988 0-5.877-1.655-16.473-15.964-40.531-7.159-12.038-14.229-21.993-14.527-22.411l-12.225-17.181-12.227 17.181c-0.298 0.418-7.366 10.374-14.527 22.411-14.31 24.058-15.964 34.654-15.964 40.531 0 18.274 11.538 33.899 27.71 39.988v45.373h-60.924v-45.373c16.171-6.09 27.71-21.714 27.71-39.988 0-5.877-1.655-16.473-15.964-40.531-7.159-12.038-14.229-21.993-14.527-22.411l-12.226-17.181-12.227 17.181c-0.298 0.418-7.366 10.374-14.527 22.411-14.31 24.058-15.964 34.654-15.964 40.531 0 18.274 11.538 33.899 27.71 39.988v45.373h-41.195c-33.352 0-60.486 27.134-60.486 60.485v90.536l4.199 4.359c3.441 3.571 7.292 6.578 11.443 9.007v95.42h-45.624v86.707h475.22v-86.707h-45.626zm-101.04-372.02c7.266 12.092 12.475 22.838 12.699 26.887-0.022 6.985-5.713 12.662-12.703 12.662-7.004 0-12.703-5.699-12.704-12.641 0.207-4.022 5.423-14.786 12.708-26.908zm-90.94 0c7.266 12.092 12.475 22.838 12.699 26.887-0.023 6.985-5.713 12.662-12.703 12.662-7.004 0-12.703-5.699-12.704-12.641 0.208-4.022 5.425-14.786 12.708-26.908zm-90.938 0c7.266 12.092 12.475 22.838 12.699 26.887-0.022 6.985-5.713 12.662-12.703 12.662-7.004 0-12.703-5.699-12.704-12.641 0.208-4.022 5.424-14.786 12.708-26.908zm-86.679 172.69c1e-3 -16.802 13.67-30.471 30.473-30.471h294.28c16.803 0 30.472 13.669 30.472 30.471v76.861c-3.878 2.851-8.541 4.388-13.462 4.388-6.241 0-12.067-2.473-16.403-6.961l-0.973-1.007c-10.047-10.401-23.529-16.12-37.983-16.12h-0.15c-14.51 0.04-28.021 5.84-38.042 16.328l-0.766 0.801c-4.302 4.503-10.1 7.007-16.326 7.052h-0.17c-6.162 0-11.931-2.417-16.275-6.834l-0.415-0.42c-10.013-10.186-23.382-15.789-37.658-15.789h-0.145c-14.332 0.038-27.728 5.718-37.72 15.99-4.333 4.455-10.134 6.903-16.344 6.903h-0.105c-6.25-0.027-12.07-2.532-16.381-7.045l-0.476-0.498c-10.062-10.53-23.623-16.33-38.188-16.331h-3e-3c-14.563 0-28.124 5.799-38.197 16.338l-0.332 0.349c-4.332 4.534-10.171 7.038-16.442 7.051h-0.05c-4.408 0-8.608-1.233-12.222-3.539v-77.517zm339.59 111.21v88.115h-323.94v-88.374c13.259-0.836 25.507-6.514 34.782-16.221l0.331-0.348c4.344-4.546 10.199-7.049 16.487-7.049h2e-3c6.288 0 12.144 2.504 16.482 7.045l0.476 0.498c10 10.466 23.479 16.266 37.953 16.331h0.245c14.383 0 27.818-5.673 37.853-15.989 4.315-4.436 10.1-6.888 16.286-6.904h0.063c6.163 0 11.936 2.42 16.278 6.836l0.416 0.421c10.02 10.191 23.376 15.787 37.649 15.786 0.131 0 0.263 0 0.393-1e-3 14.421-0.104 27.85-5.904 37.809-16.328l0.766-0.801c4.328-4.529 10.161-7.033 16.426-7.051h0.065c6.24 0 12.062 2.47 16.4 6.96l0.973 1.007c9.534 9.87 22.181 15.52 35.807 16.067zm45.624 144.81h-415.19v-26.679h415.19v26.679z"/>
</svg>
