<svg width="515.7" height="573.1" viewBox="0 0 515.7 573.1" xmlns="http://www.w3.org/2000/svg">
 <path d="m50.87 572.8c-23.59-2.677-43.26-19.71-49.15-42.56-0.5178-2.01-1.132-4.815-1.365-6.234-0.3475-2.116-0.4056-39.42-0.3235-207.6 0.1089-223.1-0.01544-208.5 1.847-215.9 5.767-22.75 24.63-39.59 47.79-42.68 2.597-0.3457 7.509-0.4612 19.81-0.466l16.36-0.0063v-57.38h57.38v57.38h229.2v-57.38h57.38v57.38l16.36 0.0063c12.16 0.0047 17.23 0.1221 19.75 0.4573 24.88 3.314 44.57 22.19 49.1 47.07l0.7078 3.886v206.2c0 168.1-0.0779 206.7-0.4211 208.9-1.939 12.62-7.41 23.46-16.35 32.4-8.693 8.693-17.87 13.47-31.11 16.18-2.586 0.5298-14.31 0.5643-208.6 0.6137-121.5 0.0309-206.9-0.0675-208.4-0.2403zm407.7-214.5v-157.5h-401.4v315h401.4zm-286.8 54.56-45.54-45.54 30.46-30.46 60.77 60.77 139.9-139.9 30.46 30.46-85.11 85.11c-46.81 46.81-85.18 85.11-85.27 85.11-0.089 0-20.65-20.49-45.7-45.54z" fill="#ffce57" />
</svg>
