<svg width="504.15" height="512" viewBox="0 0 504.15 512" xmlns="http://www.w3.org/2000/svg">
 <path d="m482.63 367.88c-11.881 0-21.513 9.632-21.513 21.513v34.392c0 16.318-8.696 30.643-21.697 38.587v-177.53c0-24.122-19.626-43.748-43.748-43.748h-122.09v-24.498c33.909-9.433 58.873-40.567 58.873-77.44 0-16.169-4.782-31.733-13.834-45.074l-48.102-83.319c-3.842-6.657-10.945-10.757-18.63-10.757-7.686 0-14.788 4.1-18.632 10.757l-51.223 88.723c-0.462 0.802-0.868 1.625-1.218 2.467-5.982 11.442-9.132 24.247-9.132 37.203 0 36.874 24.964 68.006 58.873 77.44v24.498h-122.09c-24.122 0-43.746 19.626-43.746 43.748v177.54c-13-7.944-21.697-22.269-21.697-38.587v-34.392c0-11.881-9.632-21.513-21.513-21.513s-21.513 9.632-21.513 21.513v34.392c0 48.642 39.573 88.215 88.215 88.215h327.71c48.643 0 88.217-39.573 88.217-88.215v-34.392c0-11.883-9.631-21.515-21.513-21.515zm-267.92-228.73c0-6.424 1.664-12.76 4.809-18.325 0.327-0.578 0.624-1.166 0.892-1.764l31.477-54.52 29.892 51.775c0.304 0.526 0.628 1.04 0.977 1.537 4.366 6.27 6.673 13.634 6.673 21.297 0 12.595-6.27 23.746-15.847 30.517v-18.085c0-11.881-9.632-21.513-21.513-21.513s-21.513 9.632-21.513 21.513v18.084c-9.577-6.771-15.847-17.922-15.847-30.516zm181.68 329.1c0 0.397-0.324 0.721-0.721 0.721h-287.21c-0.397 0-0.72-0.324-0.72-0.721v-183.42c0-0.397 0.324-0.721 0.72-0.721h287.21c0.397 0 0.721 0.324 0.721 0.721v183.42z"/>
</svg>
