<svg width="459.5" height="417.1" viewBox="0 0 459.5 417.1" xmlns="http://www.w3.org/2000/svg">
 <path d="m17 0c-9.35 0-17 7.65-17 17s7.65 17 17 17h48.73l69.42 251c1.983 7.367 8.782 12.47 16.43 12.47h213.4c6.8 0 12.75-3.966 15.58-10.2l77.63-178.5c2.267-5.383 1.701-11.33-1.416-16.15s-8.501-7.65-14.17-7.65h-235.7c-9.35 0-17 7.65-17 17s7.65 17 17 17h209.7l-62.9 144.5h-189.3l-69.41-251c-1.983-7.367-8.784-12.47-16.43-12.47zm358.7 339.9c-0.6581 0.0104-1.32 0.0377-1.984 0.082-21.25 1.417-37.12 20.12-35.7 41.08 1.416 20.12 18.13 35.98 38.25 35.98h2.832c10.2-0.85 19.55-5.382 26.35-13.32 6.8-7.65 9.919-17.57 9.352-28.05-1.373-20.31-18.7-36.1-39.1-35.78zm-240.3 0.084c-21.25 0-38.53 17.28-38.53 38.53s17.28 38.53 38.53 38.53 38.53-17.28 38.53-38.53-17.28-38.53-38.53-38.53z"/>
</svg>
