<svg width="512" height="512" viewBox="0 0 512 512" xmlns="http://www.w3.org/2000/svg">
 <path d="m194.1 123.8c-4.656-4.605-11.27-6.645-17.71-5.453-6.438 1.195-11.89 5.461-14.58 11.43l-160 354c-3.43 7.586-1.801 16.5 4.09 22.39 3.832 3.824 8.945 5.848 14.14 5.848 2.789 0 5.605-0.5859 8.254-1.785l179-81.18c8.625-3.91 13.11-13.18 11.34-22.09 0.2578-1.277 0.3945-2.598 0.3945-3.949v-198.3l40 39.59v130.7c0 6.812 3.469 13.15 9.199 16.83 5.734 3.68 12.95 4.188 19.14 1.348l96-44c5.973-2.734 10.22-8.227 11.36-14.69 1.145-6.469-0.957-13.08-5.625-17.7zm-15.07 64.99v209.2l-39 17.69v-137.6c0-0.8633-0.0703-1.707-0.1758-2.543zm-79 174.8v70.2l-39.91 18.1zm199-19.73v-59.91l41.38 40.95zm158.1-288c7.848 7.777 7.902 20.44 0.1289 28.29l-110 111c-3.91 3.945-9.059 5.922-14.21 5.922-5.09 0-10.18-1.93-14.08-5.793-7.844-7.777-7.902-20.44-0.125-28.29l110-111c7.777-7.844 20.44-7.902 28.29-0.1289zm-189.2 84.35c-7.812-7.812-7.812-20.48 0-28.29 7.543-7.543 8.141-14.95 8.141-23.86 0-11.05 8.957-20 20-20 11.05 0 20 8.953 20 20 0 10.48 0 32.29-19.86 52.14-3.906 3.902-9.023 5.855-14.14 5.855-5.117 0-10.24-1.953-14.14-5.855zm204.1-120.1c0-11.05 8.953-20 20-20 11.05 0 20 8.953 20 20s-8.953 20-20 20c-11.05 0-20-8.953-20-20zm-196 0c0-11.05 8.957-20 20-20 11.05 0 20 8.953 20 20s-8.953 20-20 20c-11.04 0-20-8.953-20-20zm168 199c0 11.05-8.953 20-20 20-8.902 0-16.31 0.5977-23.86 8.141-3.906 3.906-9.023 5.859-14.14 5.859-5.117 0-10.23-1.953-14.14-5.859-7.812-7.809-7.812-20.47 0-28.28 19.86-19.86 41.66-19.86 52.14-19.86 11.05 0 20 8.953 20 20zm68 0c0 11.05-8.953 20-20 20-11.05 0-20-8.953-20-20 0-11.05 8.953-20 20-20 11.05 0 20 8.953 20 20z"/>
</svg>
