<svg width="638.7" height="605.5" viewBox="0 0 638.7 605.5" xmlns="http://www.w3.org/2000/svg">
 <path d="m587.9 0.003901c-9.561-0.1941-17.9 6.874-19.08 16.57-3.883 31.75-13.53 67.5-35.73 92.73-0.3672-1.133-0.7569-2.255-1.159-3.356-12.9-35.29-40.45-54.58-75.57-52.93-25.13 1.184-46.72 14.96-57.75 36.86-10.41 20.66-9.419 44.63 2.585 62.55 7.656 11.42 26.58 30.11 67.24 27 10.96-0.8438 21.48-2.782 31.46-5.782-4.086 23.64-14.81 46.58-32.14 59.86-8.27 6.336-9.835 18.17-3.503 26.44 3.711 4.844 9.316 7.395 14.98 7.395 4 0 8.034-1.274 11.46-3.891 32.3-24.73 48.08-68.7 48.7-109.1 7.457-5.359 14.37-11.53 20.67-18.47 24.66-27.17 40.21-65.75 46.18-114.7 1.266-10.34-6.094-19.75-16.43-21.01-0.6465-0.07886-1.29-0.1234-1.927-0.1363zm-511.3 15.07c-33.34 0-60.47 27.13-60.47 60.47 0 33.34 27.12 60.47 60.47 60.47 33.35 0 60.47-27.13 60.47-60.47 0-33.34-27.13-60.47-60.47-60.47zm0 37.72c12.54 0 22.75 10.21 22.75 22.75 0 12.55-10.21 22.75-22.75 22.75-12.54 0-22.75-10.21-22.75-22.75 0-12.54 10.21-22.75 22.75-22.75zm383.8 37.85c17.12 0 29.25 9.497 36.11 28.25 1.645 4.512 2.907 9.406 3.786 14.56-10.11 4.43-21.62 7.347-34.74 8.355-15.97 1.23-27.7-2.46-33.01-10.38-4.375-6.531-4.469-16.18-0.2389-24.58 2.32-4.598 9.472-15.38 25.84-16.15 0.7578-0.03519 1.516-0.05568 2.254-0.05568zm-206.6 21.58c-5 0-9.801 1.988-13.33 5.527l-55.14 55.14c-3.535 3.539-5.524 8.337-5.524 13.34 0 5.004 1.989 9.801 5.524 13.34l55.14 55.14c3.535 3.539 8.332 5.527 13.33 5.527 5.004 0 9.801-1.988 13.34-5.527l55.13-55.14c7.371-7.363 7.371-19.31 0-26.67l-55.13-55.14c-3.539-3.539-8.336-5.527-13.34-5.527zm0 45.54 28.47 28.46-28.47 28.47-28.47-28.47zm107.6 119.2c-9.867 0-19.32 8.672-18.86 18.86 0.457 10.21 8.289 18.86 18.86 18.86 9.863 0 19.31-8.675 18.86-18.86-0.457-10.22-8.289-18.86-18.86-18.86zm-310.5 6.84c-9.863 0-19.31 8.675-18.86 18.86 0.457 10.21 8.289 18.86 18.86 18.86 9.863 0 19.32-8.671 18.86-18.86-0.457-10.22-8.286-18.86-18.86-18.86zm121.2 27.85c-3.929 0.0453-7.877 1.314-11.24 3.888-32.3 24.74-48.08 68.7-48.7 109.1-7.457 5.359-14.37 11.53-20.68 18.48-24.66 27.16-40.2 65.74-46.18 114.7-1.266 10.34 6.095 19.75 16.43 21.01 0.7773 0.0977 1.551 0.1407 2.313 0.1407 9.398 0 17.53-7.012 18.7-16.57 3.879-31.75 13.52-67.5 35.73-92.72 0.375 1.129 0.7613 2.25 1.164 3.352 12.38 33.89 38.28 53.03 71.43 53.03 1.363 0 2.746-0.0342 4.14-0.0967 25.13-1.18 46.72-14.96 57.75-36.86 10.41-20.66 9.418-44.63-2.59-62.54-7.652-11.43-26.56-30.12-67.24-27-10.96 0.8438-21.48 2.785-31.47 5.777 4.086-23.64 14.8-46.58 32.14-59.85 8.266-6.336 9.832-18.17 3.504-26.44-3.764-4.91-9.464-7.458-15.21-7.392zm392.7 10.22c-5 0-9.801 1.989-13.33 5.524l-55.14 55.14c-7.363 7.367-7.363 19.31 0 26.67l55.14 55.14c3.531 3.539 8.332 5.528 13.33 5.528s9.8-1.989 13.34-5.528l55.14-55.14c3.535-3.535 5.524-8.335 5.524-13.34 0-5.004-1.989-9.798-5.524-13.34l-55.14-55.14c-3.535-3.535-8.335-5.524-13.34-5.524zm-151.1 15.67c-9.867 0-19.32 8.675-18.86 18.86 0.457 10.22 8.285 18.86 18.86 18.86 9.863 0 19.32-8.673 18.86-18.86-0.457-10.22-8.29-18.86-18.86-18.86zm-84.25 17.21c-9.863 0-19.32 8.675-18.86 18.86 0.4609 10.22 8.286 18.86 18.86 18.86 9.863 0 19.32-8.671 18.86-18.86-0.457-10.22-8.289-18.86-18.86-18.86zm-310.5 6.84c-9.863 0-19.31 8.671-18.86 18.86 0.457 10.22 8.289 18.86 18.86 18.86 9.867 0 19.32-8.676 18.86-18.86-0.457-10.21-8.289-18.86-18.86-18.86zm545.9 5.817 28.47 28.47-28.47 28.46-28.47-28.46zm-373 69.54c13.02-9e-3 22.58 3.683 27.22 10.62 4.379 6.527 4.468 16.18 0.2374 24.57-2.316 4.598-9.473 15.38-25.84 16.15-18.32 0.8672-31.21-8.625-38.37-28.19-1.648-4.508-2.909-9.407-3.784-14.56 10.11-4.426 21.62-7.347 34.74-8.355 1.998-0.1538 3.929-0.2302 5.789-0.2316zm189.8 47.7c-33.35 0-60.47 27.12-60.47 60.47 0 33.34 27.13 60.47 60.47 60.47 33.35 0 60.47-27.13 60.47-60.47 0-33.35-27.12-60.47-60.47-60.47zm0 37.72c12.55 0 22.75 10.21 22.75 22.75 0 12.54-10.21 22.75-22.75 22.75-12.54 0-22.75-10.21-22.75-22.75 0-12.55 10.21-22.75 22.75-22.75z"/>
</svg>
