<svg width="272.7" height="297" viewBox="0 0 272.7 297" xmlns="http://www.w3.org/2000/svg">
 <path d="m56.73 0.003906c-2.599 0-5.15 1.057-6.988 2.895-1.839 1.839-2.895 4.389-2.895 6.988 0 2.599 1.056 5.146 2.895 6.984 1.838 1.84 4.39 2.898 6.988 2.898 2.609 0 5.148-1.058 6.986-2.896 1.849-1.838 2.896-4.386 2.896-6.984 0-2.6-1.048-5.149-2.896-6.988-1.837-1.84-4.376-2.896-6.986-2.896zm38.31 23.33c-1.81-0.0093-3.624 0.4793-5.229 1.465l-28.55 17.55-30.64-13.57c-3.441-1.521-7.447-0.9588-10.34 1.451-2.888 2.411-4.155 6.251-3.271 9.908l7.871 32.58-22.37 24.95c-2.512 2.801-3.215 6.785-1.814 10.28 1.399 3.491 4.659 5.886 8.41 6.176l33.42 2.578 16.82 28.98c1.775 3.061 5.042 4.924 8.547 4.924 0.222 0 0.443-8e-3 0.666-0.0215 3.753-0.253 7.039-2.616 8.473-6.094l12.78-30.98 32.76-7.035c3.679-0.79 6.59-3.599 7.51-7.246 0.92-3.648-0.3128-7.503-3.176-9.941l-25.52-21.73 3.434-33.33c0.385-3.741-1.388-7.379-4.572-9.381-1.593-1-3.4-1.506-5.211-1.516zm146.6 0.998c-1.811-0.0054-3.625 0.4866-5.225 1.477l-22.96 14.19-24.64-10.97c-3.438-1.533-7.446-0.9754-10.34 1.432s-4.168 6.247-3.289 9.906l6.348 26.41-18.03 20.22c-2.501 2.804-3.195 6.782-1.793 10.27 1.401 3.485 4.658 5.874 8.404 6.164l26.88 2.09 13.54 23.46c1.773 3.072 5.045 4.943 8.559 4.943 0.22 0 0.4411-7e-3 0.6641-0.0215 3.761-0.253 7.052-2.623 8.482-6.111l10.29-25.08 26.36-5.687c3.671-0.793 6.575-3.598 7.496-7.238 0.922-3.641-0.3003-7.488-3.152-9.93l2e-3 -2e-3 -20.56-17.61 2.768-27.02c0.384-3.745-1.396-7.384-4.586-9.383-1.596-0.9995-3.404-1.502-5.215-1.508zm-103.4 8.283c-2.6 0-5.149 1.058-6.988 2.896-1.839 1.839-2.896 4.389-2.896 6.988 0 2.6 1.057 5.149 2.896 6.986 1.839 1.838 4.389 2.896 6.988 2.896 2.608 0 5.148-1.058 6.986-2.896 1.848-1.837 2.896-4.387 2.896-6.986 0-2.6-1.049-5.149-2.896-6.988-1.838-1.838-4.378-2.896-6.986-2.896zm-55.14 19.52-1.914 18.58c-0.333 3.235 0.9468 6.427 3.424 8.535l14.23 12.12-18.27 3.922c-3.18 0.684-5.82 2.889-7.061 5.895l-7.123 17.27-9.377-16.16c-1.632-2.813-4.544-4.645-7.787-4.896l-18.62-1.438 12.46-13.91c2.172-2.422 3.014-5.758 2.25-8.92l-4.389-18.16 17.08 7.564c2.977 1.316 6.407 1.087 9.176-0.6172zm146.6 1.035-1.25 12.2c-0.33 3.224 0.9404 6.405 3.402 8.514l9.354 8.012-11.97 2.588c-3.184 0.688-5.823 2.897-7.059 5.91l-4.623 11.27-6.082-10.54c-1.629-2.823-4.545-4.662-7.795-4.914l-12.18-0.9473 8.195-9.189c2.156-2.417 2.99-5.737 2.234-8.887l-2.873-11.95 11.1 4.941c2.986 1.328 6.437 1.096 9.215-0.6211zm22.7 60.96c-2.599 0-5.147 1.056-6.986 2.895-1.839 1.838-2.895 4.39-2.895 6.988 0 2.6 1.057 5.148 2.895 6.986s4.387 2.896 6.986 2.896c2.609 0 5.15-1.058 6.988-2.896 1.849-1.838 2.896-4.387 2.896-6.986s-1.047-5.15-2.896-6.988c-1.838-1.839-4.389-2.895-6.988-2.895zm-64.83 0.0469c-4.593-0.1992-8.845 2.846-10 7.479-0.716 2.863-16.56 71.26 67.22 171.8 1.956 2.346 4.768 3.555 7.6 3.555 2.231 0 4.474-0.7501 6.322-2.289 4.192-3.495 4.76-9.728 1.266-13.92-40.21-48.25-55.24-87.76-60.78-112.4l2e-3 -6e-3c-5.906-26.31-2.518-41.67-2.441-42.01 1.281-5.273-1.934-10.6-7.207-11.92-0.662-0.1658-1.324-0.2606-1.98-0.2891zm-82.09 16.24c-2.849 0.0366-5.66 1.297-7.584 3.689-3.42 4.255-2.742 10.48 1.512 13.9 54 43.41 94.48 141.8 94.89 142.8 1.561 3.835 5.257 6.16 9.158 6.16 1.24 0 2.502-0.2345 3.721-0.7305 5.056-2.058 7.488-7.823 5.432-12.88-1.721-4.23-42.79-104.1-100.8-150.7l-0.01-0.0605c-1.862-1.495-4.101-2.206-6.316-2.178zm-81.42 16.38c-2.599 0-5.148 1.056-6.986 2.895-1.839 1.839-2.896 4.378-2.896 6.988 0 2.608 1.058 5.148 2.896 6.986 1.838 1.839 4.388 2.896 6.986 2.896 2.6 0 5.148-1.058 6.986-2.896 1.848-1.838 2.898-4.388 2.898-6.986 0-2.6-1.05-5.149-2.898-6.988-1.838-1.839-4.377-2.895-6.986-2.895zm27.91 11.95c-3.227 0.2026-6.185 1.986-7.867 4.816l-9.584 16.14-18.73 1.254c-3.754 0.25-7.04 2.611-8.477 6.088-1.434 3.478-0.773 7.47 1.709 10.3l12.39 14.1-4.594 18.2c-0.921 3.648 0.3089 7.501 3.172 9.941 2.863 2.439 6.862 3.045 10.32 1.557l17.24-7.422 15.89 9.992c1.606 1.012 3.435 1.518 5.262 1.518 1.793 0 3.587-0.4879 5.174-1.463 3.205-1.969 5.014-5.586 4.666-9.332l-1.732-18.69 14.41-12.02c2.889-2.41 4.16-6.25 3.279-9.906-0.882-3.656-3.764-6.494-7.434-7.322l-0.0039-8e-3 -18.31-4.133-6.977-17.42c-1.398-3.492-4.659-5.887-8.41-6.178-0.4691-0.0371-0.9354-0.0407-1.396-0.0117zm-1.1 32.13 1.463 3.652c1.209 3.018 3.828 5.249 7 5.965l3.848 0.8691-3.027 2.523c-2.498 2.084-3.813 5.263-3.512 8.502l0.3633 3.92-3.336-2.096c-1.598-1.006-3.425-1.52-5.262-1.52-1.325 0-2.654 0.2686-3.906 0.8086l-3.615 1.555 0.9629-3.814c0.798-3.153-0.01025-6.498-2.156-8.941l-2.602-2.963 3.93-0.2637c3.245-0.218 6.179-2.018 7.84-4.812zm185.2 4.812c-2.599 0-5.148 1.057-6.986 2.896-1.839 1.839-2.896 4.389-2.896 6.988s1.057 5.148 2.896 6.986c1.848 1.838 4.388 2.896 6.986 2.896 2.6 0 5.148-1.059 6.986-2.896 1.849-1.838 2.896-4.388 2.896-6.986 0-2.6-1.048-5.149-2.896-6.988-1.838-1.839-4.377-2.896-6.986-2.896zm-130.3 16.34c-4.201-0.0859-8.143 2.539-9.557 6.732-1.74 5.161 1.037 10.76 6.191 12.52 1.723 0.587 42.2 14.86 42.2 55.86 0 5.459 4.427 9.885 9.885 9.885s9.885-4.426 9.885-9.885c1e-3 -23.03-9.69-43.28-28.02-58.56v4e-3c-13.51-11.26-27.09-15.86-27.66-16.05-0.9692-0.3225-1.952-0.488-2.922-0.5078z"/>
</svg>
