<svg width="383.7" height="512" viewBox="0 0 383.7 512" xmlns="http://www.w3.org/2000/svg">
 <path d="m156.7 0c-22.63 0-41.04 18.41-41.04 41.04v226.2l-42.04-51.25c-13.76-16.77-37.63-20.18-55.52-7.924-16.66 11.41-22.69 33.03-14.34 51.41l36.24 79.73c16.4 36.08 42.3 67.06 74.89 89.6l13.06 9.031v1.367c-8.546 2.925-14.71 11.03-14.71 20.56v42.28c0 5.523 4.478 10 10 10h200c5.522 0 10-4.477 10-10v-42.27c0-9.98-6.767-18.41-15.95-20.94v-2.1l30.63-30.81c23.06-23.19 35.77-53.98 35.77-86.69v-69.69c0-5.523-4.478-10-10-10s-10 4.477-10 10v69.69c0 27.39-10.64 53.17-29.95 72.59l-33.54 33.73c-1.863 1.874-2.91 4.409-2.91 7.051v5.443h-149.3v-5.441c0-3.284-1.612-6.36-4.312-8.227l-17.38-12.01c-29.62-20.48-53.16-48.64-68.06-81.42l-36.24-79.73c-4.329-9.524-1.205-20.73 7.428-26.64 9.273-6.347 21.64-4.581 28.76 4.105l46.6 56.8c4.73 5.766 12.32 7.869 19.35 5.355 7.022-2.512 11.56-8.953 11.56-16.41v-233.3c0-11.6 9.44-21.04 21.04-21.04s21.04 9.441 21.04 21.04l-0.1094 180.4c0 22.63 18.41 41.04 41.04 41.04 12.36 0 23.46-5.502 30.99-14.18 7.531 8.676 18.63 14.18 30.99 14.18 22.63 0 41.04-18.41 41.04-41.04l-0.1094-126.4c0-11.6 9.442-21.05 21.05-21.05s21.04 9.443 21.04 21.05v80.46c-1e-3 5.523 4.475 10 9.998 10 5.522 0 10-4.477 10-10v-80.46c0-22.63-18.41-41.04-41.04-41.04-22.63 0-41.05 18.41-41.05 41.04v51.9c-6.134-3.653-13.29-5.76-20.94-5.76-12.36 0-23.46 5.502-30.99 14.18-7.531-8.676-18.63-14.18-30.99-14.18-7.644 0-14.8 2.106-20.94 5.76v-105.9c0-22.63-18.41-41.04-41.04-41.04zm61.98 161.2c11.12 0 20.23 8.673 20.97 19.61-0.017 0.478-0.0371 40.62-0.0371 40.62 0 0.482 0.0201 0.9604 0.0371 1.439-0.745 10.93-9.854 19.61-20.97 19.61-11.6 0-21.04-9.441-21.04-21.04v-39.19c0-11.6 9.44-21.04 21.04-21.04zm61.98 0c11.6 0 21.04 9.441 21.04 21.04v39.19c0 11.6-9.44 21.04-21.04 21.04-11.12 0-20.23-8.673-20.97-19.61 0.017-0.478 0.0371-0.9564 0.0371-1.439 0 0-0.0201-40.15-0.0371-40.62 0.745-10.93 9.854-19.61 20.97-19.61zm93.03 41.82c-2.63 0-5.21 1.07-7.07 2.93-1.861 1.86-2.93 4.44-2.93 7.07s1.07 5.21 2.93 7.07 4.44 2.93 7.07 2.93c2.629 0 5.209-1.071 7.068-2.93 1.861-1.86 2.932-4.44 2.932-7.07s-1.072-5.21-2.932-7.07c-1.859-1.86-4.438-2.93-7.068-2.93zm-215.3 98.19c-5.522 0-10 4.477-10 10s4.478 10 10 10c16.58 0 31.02 11.79 34.34 28.03l0.4941 2.412c0.968 4.735 5.134 8 9.785 8 0.664 0 1.338-0.0661 2.014-0.2051 5.411-1.106 8.901-6.391 7.795-11.8l-0.4922-2.41c-5.212-25.51-27.9-44.03-53.94-44.03zm-23.41 156.8h176.6c0.951 0 1.727 0.7746 1.727 1.727v32.27h-180v-32.27c0-0.952 0.7726-1.727 1.725-1.727z"/>
</svg>
