<svg width="512" height="469.3" viewBox="0 0 512 469.3" xmlns="http://www.w3.org/2000/svg">
 <path d="m99.56 0c-54.9 0-99.56 46.66-99.56 104 0 27.67 10.29 53.72 29.02 73.4l110.9 115.3c4.477 4.66 9.866 8.034 15.72 10.24l-26.12 43.53c-1.979 3.302-2.021 7.406-0.1465 10.75 1.896 3.344 5.459 5.406 9.293 5.406h19.25c-1.462 3.249-3.589 6.013-6.246 9.332-5.792 7.25-13 16.26-13 33.33s7.208 26.08 13 33.33c5.021 6.271 8.332 10.41 8.332 20 0 5.896 4.772 10.67 10.67 10.67s10.67-4.77 10.67-10.67c0-17.07-7.208-26.08-13-33.33-5.021-6.271-8.332-10.41-8.332-20s3.312-13.73 8.332-20c4.436-5.553 9.638-12.22 11.86-22.67h22.47c3.833 0 7.397-2.063 9.293-5.406 1.875-3.344 1.833-7.448-0.1465-10.75l-26.12-43.53c5.857-2.206 11.25-5.579 15.72-10.24l34.25-35.62c1.12 1.322 2.092 3.009 3.254 4.215l93.17 95.83c4.417 4.542 9.693 7.853 15.42 10.04l-25.98 43.31c-1.979 3.302-2.02 7.406-0.1445 10.75 1.896 3.344 5.457 5.404 9.291 5.404h16.8c-0.88 0.966-1.845 1.964-3.006 3.125-5.813 5.823-13.79 13.79-13.79 28.88 0 5.896 4.772 10.67 10.67 10.67s10.67-4.772 10.67-10.67c0-6 2.314-8.562 7.543-13.79 4.246-4.254 9.587-9.728 12.19-18.21h22.94c3.833 0 7.395-2.061 9.291-5.404 1.875-3.344 1.833-7.448-0.1465-10.75l-25.98-43.31c5.729-2.182 11.01-5.494 15.42-10.04l93.2-95.87c16.48-17.09 25.54-39.81 25.54-63.96 0-49.99-39.35-90.67-87.71-90.67-23.46 0-45.35 9.541-61.71 26.55-6.414-6.454-14.17-11.57-22.49-15.89 0.543-4.418 1.244-8.804 1.244-13.33 0-57.34-44.67-104-99.56-104-27.15 0-52.42 11.36-71.1 31.6-18.69-20.24-43.96-31.6-71.11-31.6zm0 21.33c24.62 0 47.38 12.16 62.4 33.36 4 5.625 13.42 5.625 17.42 0 15.02-21.2 37.77-33.36 62.39-33.36 43.15 0 78.23 37.08 78.23 82.67 0 22.17-8.209 43-23.06 58.6l-110.9 115.3c-8.125 8.458-22.62 8.458-30.75 0l-110.9-115.3c-14.9-15.65-23.1-36.48-23.1-58.65 0-45.58 35.08-82.67 78.23-82.67zm0 21.34c-31.38 0-56.89 27.51-56.89 61.33 0 5.896 4.77 10.67 10.67 10.67 5.895 0 10.67-4.772 10.67-10.67 0-22.05 15.96-40 35.56-40 5.896 0 10.67-4.772 10.67-10.67-1e-3 -5.895-4.773-10.66-10.67-10.66zm324.7 85.33c36.6 0 66.38 31.1 66.38 69.33 0 18.59-6.957 36.05-19.54 49.12l-93.17 95.83c-8.126 8.335-22.46 8.337-30.58 4e-3l-93.12-95.79c-1.302-1.346-2.466-3.265-3.717-4.846l61.82-64.3c10.42-10.95 17.92-24.02 22.79-38.13 7.322 4.592 13.98 9.953 18.86 16.76 2 2.802 5.228 4.459 8.666 4.459s6.667-1.657 8.668-4.449c12.75-17.79 32.06-27.99 52.96-27.99zm-253.6 191.4 13.17 21.94h-26.33zm192 64 13.17 21.94h-26.33z"/>
</svg>
