<svg width="512" height="488.5" viewBox="0 0 512 488.5" xmlns="http://www.w3.org/2000/svg">
 <path d="m473 370.7c-13.3-5.965-30.31-11.34-50.11-15.9 33.38-32.48 54.15-77.86 54.15-128v-67.97l-67.25 37.87c0.8281-11.51 1.254-23.22 1.254-35.05v-99.45l-64.23 74.32-90.77-136.5-91.2 137.1-64.8-74.98v99.45c0 11.84 0.4258 23.54 1.254 35.06l-67.25-37.87v67.97c0 50.24 20.85 95.7 54.34 128.2-19.3 4.484-35.91 9.746-48.98 15.57-26.12 11.64-39.36 26.08-39.36 42.92 0 24.27 27.58 43.44 81.96 56.98 46.67 11.62 108.5 18.02 174 18.02s127.4-6.398 174-18.02c54.39-13.54 81.96-32.71 81.96-56.98 0-16.77-13.13-31.17-39.04-42.78zm-25.96-160.6v16.65c0 61.34-37.34 114.1-90.47 136.8 7.324-9.648 14.14-20.86 20.34-33.59 13.43-27.59 23.17-60.62 28.73-96.56zm-66-48.5c0 58.9-11.05 114-31.11 155.3-18.12 37.23-41.91 58.59-65.27 58.59h-13.55c2.246-68.06 20.62-129.4 49.1-162.3l60.83-70.38zm-125-107.4 70.41 105.9-28.93 33.48c-17.48 20.23-31.95 49.3-41.85 84.09-0.043 0.1562-0.0859 0.3203-0.1289 0.4766-0.0469-0.1562-0.0859-0.3203-0.1289-0.4766-9.898-34.79-24.37-63.86-41.85-84.09l-28.36-32.82zm-126 88.57 60.83 70.38c28.47 32.94 46.85 94.26 49.1 162.3h-13.56c-23.36 0-47.14-21.36-65.26-58.59-20.06-41.22-31.11-96.36-31.11-155.3zm-66 84.02v-16.65l41.4 23.32c5.562 35.94 15.3 68.96 28.73 96.56 6.191 12.73 13.01 23.94 20.34 33.59-53.13-22.7-90.47-75.47-90.47-136.8zm358.8 214.6c-44.37 11.05-103.6 17.13-166.8 17.13s-122.4-6.082-166.8-17.13c-54.8-13.64-59.21-27.74-59.21-27.87 0-3.168 15.86-21.3 89.57-34.24 27.13 16.64 59.03 26.24 93.12 26.24h85.62c34.19 0 66.16-9.656 93.34-26.38 74.41 12.95 90.34 31.21 90.34 34.38 0 0.1328-4.41 14.23-59.21 27.87z"/>
</svg>
