<svg width="60.12" height="45.26" viewBox="0 0 60.12 45.26" xmlns="http://www.w3.org/2000/svg">
 <path d="m4.029 0a4.029 4.029 0 0 0-4.029 4.029 4.029 4.029 0 0 0 4.029 4.029 4.029 4.029 0 0 0 4.029-4.029 4.029 4.029 0 0 0-4.029-4.029zm12.89 0.7969c-1.657 0-3 1.343-3 3s1.343 3 3 3h40.2c1.657 0 3-1.343 3-3s-1.343-3-3-3zm-12.89 17.8a4.029 4.029 0 0 0-4.029 4.029 4.029 4.029 0 0 0 4.029 4.027 4.029 4.029 0 0 0 4.029-4.027 4.029 4.029 0 0 0-4.029-4.029zm12.89 1.029c-1.657 0-3 1.343-3 3s1.343 3 3 3h40.2c1.657 0 3.001-1.343 3-3 0-1.657-1.343-3-3-3zm-12.89 17.57a4.029 4.029 0 0 0-4.029 4.029 4.029 4.029 0 0 0 4.029 4.029 4.029 4.029 0 0 0 4.029-4.029 4.029 4.029 0 0 0-4.029-4.029zm12.89 1.262c-1.657 0-3 1.343-3 3s1.343 3 3 3h40.2c1.657 0 3-1.343 3-3s-1.343-3-3-3z"/>
</svg>
