<svg viewBox="0 0 480 480" xmlns="http://www.w3.org/2000/svg">
 <path d="m133.8 0c-73.8 0-133.8 60.22-133.8 134.2 0 30.44 11.14 59.71 31.35 82.4 1.976 2.219 4.717 3.35 7.471 3.35 2.366 0 4.74-0.8352 6.646-2.533 4.124-3.674 4.488-9.995 0.8145-14.12-16.95-19.03-26.29-43.57-26.29-69.1 0-63 51.07-114.2 113.8-114.2 40.28 0 76.76 20.7 97.58 55.38 1.807 3.011 5.061 4.854 8.572 4.854s6.764-1.843 8.572-4.854c20.82-34.68 57.3-55.38 97.58-55.38 62.78 0 113.8 51.25 113.8 114.2 0 25.53-9.334 50.07-26.28 69.1-3.673 4.124-3.31 10.44 0.8144 14.12 4.125 3.674 10.45 3.309 14.12-0.8164 20.22-22.7 31.35-51.96 31.35-82.4 0-74.03-60.04-134.2-133.8-134.2-23.5 0-46.62 6.201-66.86 17.93-15.22 8.824-28.6 20.62-39.29 34.56-10.69-13.94-24.07-25.74-39.29-34.56-20.24-11.73-43.36-17.93-66.86-17.93zm188 180c-16.13 0-29.25 13.12-29.25 29.25v47.48c0 13.9 5.235 26.67 13.81 36.35-6.854 2.128-13.08 6.084-17.96 11.54l-36.69 35.69c-0.191 0.187-0.3757 0.382-0.5527 0.584-2.285 2.613-5.587 4.111-9.059 4.111s-6.773-1.498-9.059-4.111c-0.271-0.31-0.5621-0.603-0.8691-0.877l-39.52-35.28c-5.181-5.656-12.32-9.1-19.93-9.658 4.936-10.05 7.708-21.34 7.709-33.27l2e-3 -23.22c1e-3 -14.03-5.462-27.22-15.38-37.14s-23.11-15.38-37.14-15.38h-1.1c-29.8 0-54.04 24.15-54.04 53.83 0 24.8-11.11 47.91-30.47 63.4l-8.365 6.691c-5.205 4.165-7.144 10.92-4.938 17.21 2.207 6.29 7.939 10.36 14.61 10.36h20.68c-1.561 3.504-2.918 7.162-4.072 10.96l-26.89 88.53c-3.385 11.14-1.429 23.54 5.105 32.35 5.001 6.741 12.26 10.61 19.92 10.61h125.6c7.657 0 14.92-3.867 19.91-10.61 6.533-8.812 8.489-21.21 5.104-32.35l-24.28-79.95c-1.605-5.285-7.191-8.266-12.47-6.662-5.284 1.605-8.268 7.19-6.662 12.47l24.28 79.95c1.769 5.824 0.2538 11.54-2.033 14.63-0.697 0.941-2.127 2.521-3.85 2.521h-125.6c-1.723 0-3.152-1.579-3.85-2.521-2.287-3.084-3.803-8.805-2.033-14.63l26.89-88.53c1.863-6.134 4.386-11.76 7.521-16.77h17.83c21.06 0 40.13-8.633 53.87-22.55h11.97c2.884 0 5.626 1.244 7.525 3.414 0.271 0.31 0.5612 0.603 0.8672 0.877l39.52 35.27c6.063 6.642 14.65 10.44 23.66 10.44 9.093 0 17.75-3.863 23.82-10.61l36.69-35.7c0.191-0.187 0.3767-0.381 0.5527-0.582 3.799-4.341 9.284-6.83 15.05-6.83h43.88c5.818 0 11.14 2.402 14.99 6.764s5.573 9.943 4.842 15.8l-5.912 50.81-27.79 13.9-26.18-13.09-3.77-31.65c-0.653-5.484-5.632-9.401-11.11-8.746-5.484 0.653-9.399 5.627-8.746 11.11l12.66 106.3c1.249 9.987 9.781 17.52 19.85 17.52h36.32c10.07 0 18.6-7.532 19.86-17.6l14.68-126.2c1.423-11.38-2.113-22.84-9.703-31.43-2.705-3.066-5.835-5.664-9.264-7.74 0.438-0.404 0.8708-0.8153 1.299-1.236 10.37-10.2 16.09-23.83 16.09-38.38v-27.45c0-27.57-22.43-50-50-50zm2e-3 20h28.41c16.54 0 30 13.46 30 30v27.45c-1e-3 9.144-3.593 17.71-10.11 24.12-6.519 6.411-15.17 9.839-24.3 9.703-18.33-0.306-33.25-15.8-33.25-34.55v-2.783c11.2 6.797 24.62 10.5 38.31 10.5 5.522 0 10-4.477 10-10s-4.478-10-10-10c-11.25 0-22.16-3.352-30.73-9.436-4.746-3.37-7.578-8.98-7.578-15.01v-10.75c0-5.101 4.149-9.25 9.25-9.25zm-195 6.057h1.1c8.688 0 16.86 3.383 23 9.527s9.526 14.31 9.525 23l-2e-3 23.22c-3e-3 30.74-25.01 55.74-55.75 55.74h-1.832c13.8-11.02 24.73-26.09 30.96-43.87 1.828-5.212-0.915-10.92-6.127-12.75-5.206-1.825-10.92 0.916-12.75 6.127-9.309 26.54-31.64 45.43-57.46 49.62 22.47-19.26 35.28-47.05 35.28-76.79 0-18.65 15.27-33.83 34.04-33.83zm246.5 202.3-6.004 51.6-36.32 0.0586-6.055-50.82 18.88 9.438c2.814 1.407 6.129 1.407 8.943 0z"/>
</svg>
