<svg width="492.9" height="512" viewBox="0 0 492.9 512" xmlns="http://www.w3.org/2000/svg">
 <path d="m357.8 0-10.81 19.76-19.76 10.8 19.76 10.81 10.81 19.76 10.8-19.76 19.76-10.81-19.76-10.8zm-207.3 42.85-13.36 24.43-24.43 13.36 24.43 13.36 13.36 24.43 13.36-24.43 24.43-13.36-24.43-13.36zm132.1 21.05c-2.683-0.0439-5.388 0.5566-7.871 1.822-5.676 2.893-9.216 8.755-9.135 15.12l0.8281 64.81-52.92 37.43c-5.201 3.678-7.863 9.988-6.867 16.28 0.996 6.291 5.479 11.47 11.56 13.36l43.84 13.63-257.1 257.1c-6.535 6.534-6.535 17.13 0 23.67 6.535 6.535 17.13 6.535 23.67 0l257.1-257.1 13.63 43.84c1.891 6.082 7.071 10.56 13.36 11.56 0.876 0.138 1.749 0.207 2.621 0.207 5.375 0 10.49-2.595 13.66-7.072l37.43-52.92 64.81 0.8281c0.071 1e-3 0.1438 2e-3 0.2148 2e-3 6.287 0 12.05-3.527 14.91-9.139 2.892-5.675 2.311-12.5-1.498-17.61l-38.77-51.95 20.81-61.38c2.046-6.032 0.4884-12.7-4.016-17.21s-11.17-6.062-17.21-4.016l-61.38 20.81-51.95-38.77c-2.87-2.143-6.285-3.264-9.734-3.32zm16.89 50.42 31.82 23.75c4.415 3.294 10.17 4.206 15.38 2.438l37.61-12.75-12.75 37.61c-1.769 5.217-0.8585 10.97 2.438 15.38l23.75 31.82-39.71-0.5078c-5.516-0.077-10.7 2.575-13.88 7.072l-22.93 32.42c-12.77-41.08-12.1-40.95-15.93-44.79-4.112-4.112-4.735-3.485-44.79-15.93l32.42-22.93c4.496-3.181 7.141-8.369 7.072-13.88zm175.2 16.37-6.467 11.82-11.82 6.465 11.82 6.467 6.467 11.82 6.467-11.82 11.82-6.467-11.82-6.465zm-45.04 163.4 7.834 26.75-7.834 26.75 26.75-7.834 26.75 7.834-7.836-26.75 7.836-26.75-26.75 7.834zm-86.99 70.61-10.8 19.76-19.76 10.81 19.76 10.8 10.8 19.76 10.8-19.76 19.76-10.8-19.76-10.81z"/>
</svg>
