<svg width="296.3" height="430.1" viewBox="0 0 296.3 430.1" xmlns="http://www.w3.org/2000/svg">
 <path d="m289.3 107.1c-1.531-5.738-4.64-11.85-6.94-17.2-27.52-66.14-87.66-89.85-136.2-89.85-65 0-136.6 43.59-146.2 133.4v18.36c0 0.766 0.264 7.647 0.639 11.09 5.358 42.82 39.14 88.32 64.38 131.1 27.15 45.87 55.31 91 83.22 136.1 17.21-29.44 34.35-59.26 51.17-87.93 4.583-8.415 9.903-16.82 14.49-24.86 3.058-5.348 8.9-10.7 11.57-15.67 27.14-49.7 70.84-99.78 70.84-149.1v-20.26c1e-3 -5.347-6.627-24.08-7-25.23zm-142 92.14c-19.11 0-40.02-9.554-50.34-35.94-1.538-4.2-1.414-12.62-1.414-13.39v-11.85c0-33.64 28.56-48.93 53.41-48.93 30.59 0 54.24 24.47 54.24 55.06 0 30.59-25.3 55.05-55.89 55.05z"/>
</svg>
