<svg width="271.2" height="297" viewBox="0 0 271.2 297" xmlns="http://www.w3.org/2000/svg">
 <path d="m146 0.003948c-12.55 0.1277-25.43 3.349-37.69 9.479-27.43 13.72-34.52 46.1-36.35 62.36h-62.33c-5.303 0-9.602 4.3-9.602 9.602v206c0 5.303 4.299 9.604 9.602 9.604h142.6c5.303 0 9.605-4.301 9.605-9.604v-206c0-5.302-4.302-9.602-9.605-9.602h-60.91c1.738-13.12 7.373-36.07 25.6-45.18 23.09-11.54 47.38-9.648 63.39 4.941 15.64 14.25 19.23 37.5 9.623 62.21-19.98 51.36 9.109 87.32 10.36 88.82 1.904 2.296 4.656 3.486 7.428 3.486 2.156-2e-3 4.322-0.7221 6.109-2.203 4.082-3.384 4.664-9.418 1.279-13.5-0.949-1.17-23.04-29.1-7.277-69.65 12.6-32.39 7.145-63.56-14.59-83.36-10.48-9.555-23.83-15.43-38.6-16.99-2.852-0.3022-5.732-0.4377-8.629-0.4082zm-126.8 91.04h71.34l-71.34 50.95zm104.4 0h19.01v24.42l-123.4 89.71v-39.58zm19.01 48.16v39.6l-123.4 88.65v-38.54zm88.81 11.85c-2.525 0-5.004 1.026-6.789 2.812-1.787 1.786-2.812 4.264-2.812 6.789s1.024 5.002 2.812 6.787c1.785 1.786 4.264 2.814 6.789 2.814s5.002-1.027 6.787-2.814c1.787-1.785 2.814-4.262 2.814-6.787s-1.02-5.003-2.814-6.789c-1.785-1.786-4.262-2.812-6.787-2.812zm-0.1582 27.25c-4.093-0.0513-7.916 2.539-9.248 6.637-1.639 5.044 1.121 10.46 6.164 12.1l21.31 6.924c0.986 0.32 1.986 0.4726 2.969 0.4726 4.047 0 7.813-2.582 9.131-6.639 1.637-5.043-1.123-10.46-6.166-12.1l-21.31-6.922c-0.9459-0.3071-1.905-0.4589-2.85-0.4707zm-52.17 2.037c-2.525 0-5.002 1.026-6.789 2.812-1.785 1.786-2.812 4.264-2.812 6.789s1.026 5.002 2.812 6.787c1.797 1.787 4.264 2.814 6.789 2.814s5.002-1.027 6.787-2.814c1.787-1.785 2.814-4.262 2.814-6.787 1e-3 -2.525-1.027-5.003-2.814-6.789-1.785-1.786-4.252-2.812-6.787-2.812zm23.94 12.35c-4.094-0.0514-7.919 2.537-9.252 6.635l-6.922 21.31c-1.639 5.044 1.121 10.46 6.164 12.1 0.986 0.32 1.984 0.4726 2.969 0.4726 4.047 0 7.813-2.579 9.131-6.637l6.924-21.31c1.637-5.044-1.123-10.46-6.164-12.1-0.9463-0.3069-1.905-0.4588-2.85-0.4707zm21.43 6.926c-1.548-0.0402-3.128 0.2944-4.604 1.047-4.725 2.407-6.602 8.189-4.193 12.91l9.811 19.25c1.697 3.329 5.066 5.244 8.562 5.244 1.467 0 2.958-0.3388 4.355-1.051 4.725-2.407 6.6-8.19 4.191-12.91l-9.812-19.25c-1.654-3.25-4.905-5.152-8.311-5.24zm-81.86 2.838v32.4l-61.73 42.95h-43.12zm119.1 8.613c-2.525 0-5.002 1.028-6.789 2.814-1.785 1.786-2.812 4.264-2.812 6.789 0 2.524 1.026 5 2.812 6.785 1.787 1.786 4.264 2.814 6.789 2.814 2.535 0 5.004-1.028 6.789-2.814 1.795-1.785 2.812-4.261 2.812-6.785-1e-3 -2.525-1.018-5.003-2.812-6.789-1.785-1.786-4.254-2.814-6.789-2.814zm-48.97 23.04c-2.525 0-5.002 1.026-6.789 2.812-1.785 1.786-2.814 4.264-2.814 6.789s1.028 5.002 2.814 6.787c1.787 1.787 4.264 2.814 6.789 2.814 2.535 0 5.004-1.027 6.789-2.814 1.795-1.785 2.812-4.262 2.812-6.787s-1.018-5.003-2.812-6.789c-1.785-1.786-4.254-2.812-6.789-2.812zm-70.09 24.14v19.55h-28.11z"/>
</svg>
