<svg width="440" height="512" viewBox="0 0 440 512" xmlns="http://www.w3.org/2000/svg">
 <path d="m220 0c-121.3 0-220 96.24-220 215.9 0 68.63 33.02 132.6 88.88 173.3v102.8c0 7.938 4.695 15.12 11.96 18.31 7.225 3.173 15.7 1.81 21.58-3.592l82.14-75.56c5.17 0.355 10.33 0.5352 15.44 0.5352 121.3 0 220-96.24 220-215.8 0-119.7-98.79-215.8-220-215.8zm0 40c99.25 0 180 78.89 180 175.9 0 96.96-80.75 175.8-180 175.8-6.687 0-13.52-0.3771-20.3-1.119-5.737-0.634-11.47 1.254-15.71 5.162l-55.11 50.69v-67.73c0-6.741-3.395-13.03-9.033-16.73-50-32.78-79.85-87.4-79.85-146.1 0-96.96 80.75-175.9 180-175.9zm-60 58.88c-11.05 0-20 8.954-20 20s8.954 20 20 20h70c16.54 0 30 13.46 30 30s-13.46 30-30 30h-20c-11.05 0-20 8.954-20 20v28.79c0 11.05 8.954 20 20 20s20-8.954 20-20v-8.793c38.6 0 70-31.4 70-70 0-38.6-31.4-70-70-70zm50 193.3a27 27 0 0 0-27 27 27 27 0 0 0 27 27 27 27 0 0 0 27-27 27 27 0 0 0-27-27z"/>
</svg>
