<svg width="681.3" height="681.3" viewBox="0 0 681.3 681.3" xmlns="http://www.w3.org/2000/svg">
 <path d="m661.8 0.005473c-1.183-0.02779-2.378 0.05017-3.568 0.2363l-292.6 46.08c-7.439 1.175-13.58 6.425-15.89 13.59-2.313 7.163-0.3997 15.02 4.949 20.31l21.34 21.13-164.8 163.2c-3.784 3.748-5.916 8.857-5.916 14.18 0 5.328 2.132 10.44 5.916 14.19l18.12 17.96-84.9 84.89c-7.797 7.792-7.796 20.43-4e-3 28.23 3.899 3.899 9.007 5.848 14.12 5.848 5.105 0 10.21-1.948 14.11-5.842l85.04-85.03 84.62 83.81-129.2 129.2c-7.797 7.792-7.797 20.43 0 28.23 3.899 3.899 9.003 5.848 14.11 5.848 5.11 0 10.21-1.948 14.11-5.842l129.3-129.3 17.76 17.59c3.888 3.852 8.966 5.775 14.04 5.775 5.084 0 10.16-1.924 14.05-5.775l165-163.5 16.86 16.7c3.8 3.763 8.866 5.781 14.05 5.781 2.043 0 4.103-0.3125 6.109-0.957 7.09-2.282 12.32-8.321 13.57-15.67l48.76-287.6c1.076-6.337-0.9672-12.8-5.484-17.37-3.67-3.712-8.609-5.801-13.74-5.922zm-24.78 43.99-37.69 222.3-188.5-186.7zm-232.6 85.42 37.8 37.44h-75.61zm-77.79 77.04s155.5 0.2962 155.8 0.2754l51.61 51.11h-259.3zm-245.3 59.84c-11.03 0-19.96 8.941-19.96 19.96v9.258h-9.539c-11.03 0-19.96 8.936-19.96 19.96 0 11.02 8.936 19.96 19.96 19.96h9.539v9.252c0 11.02 8.936 19.96 19.96 19.96 11.02 0 19.96-8.941 19.96-19.96v-9.252h9.533c11.03 0 19.96-8.941 19.96-19.96 0-11.03-8.936-19.96-19.96-19.96h-9.533v-9.258c0-11.02-8.941-19.96-19.96-19.96zm191.5 31.47h259.3l-54.18 53.66-150.7 0.2344zm94.49 93.58h70.35l-35.18 34.84zm-249.5 39.49c-5.108-0.0247-10.23 1.898-14.14 5.775l-13.24 13.12c-7.828 7.756-7.89 20.39-0.1348 28.23 3.904 3.94 9.045 5.916 14.19 5.916 5.073 0 10.15-1.924 14.04-5.775l13.24-13.12c7.834-7.761 7.896-20.4 0.1348-28.23-3.878-3.914-8.977-5.885-14.09-5.91zm86.84 25.72c-5.108-6.5e-4 -10.22 1.948-14.11 5.844l-130.8 130.8c-7.797 7.792-7.797 20.43 0 28.23 3.899 3.899 9.003 5.848 14.11 5.848 5.11 0 10.21-1.948 14.11-5.842l130.8-130.8c7.797-7.792 7.798-20.43 6e-3 -28.23-3.899-3.899-9.007-5.847-14.12-5.848zm193.3 67.67c-11.02 0-19.96 8.936-19.96 19.96v9.254h-9.533c-11.03 0-19.96 8.936-19.96 19.96 0 11.02 8.936 19.96 19.96 19.96h9.533v9.252c0 11.03 8.941 19.96 19.96 19.96 11.03 0 19.96-8.936 19.96-19.96v-9.252h9.539c11.03 0 19.96-8.941 19.96-19.96 0-11.03-8.936-19.96-19.96-19.96h-9.539v-9.254c0-11.03-8.936-19.96-19.96-19.96zm-211.5 62.81c-5.109-0.0234-10.23 1.903-14.14 5.783l-13.24 13.11c-7.828 7.761-7.89 20.4-0.1348 28.23 3.904 3.94 9.046 5.91 14.18 5.91 5.079 0 10.16-1.922 14.05-5.773l13.24-13.12c7.834-7.761 7.892-20.4 0.1367-28.23-3.88-3.917-8.983-5.889-14.09-5.912zm-153.4 41.26c-5.108-0.0253-10.23 1.898-14.14 5.775l-13.24 13.12c-7.834 7.756-7.896 20.4-0.1348 28.23 3.904 3.94 9.039 5.916 14.18 5.916 5.073 0 10.15-1.927 14.04-5.779l13.24-13.12c7.834-7.756 7.896-20.39 0.1406-28.23-3.88-3.917-8.979-5.891-14.09-5.916z"/>
</svg>
