<svg width="512" height="487.9" viewBox="0 0 512 487.9" xmlns="http://www.w3.org/2000/svg">
 <path d="m256 0c-3.399 0-6.565 1.728-8.406 4.586l-61.04 94.79c-2.794-0.739-5.725-1.137-8.748-1.137-18.88 0-34.24 15.36-34.24 34.25v10.67l-136.1 35.91c-3.288 0.867-5.908 3.344-6.959 6.578-1.051 3.233-0.3873 6.78 1.764 9.414l100.7 123.3-8.939 159c-0.19 3.395 1.354 6.653 4.105 8.652 1.734 1.26 3.797 1.91 5.879 1.91 1.22 0 2.446-0.2227 3.617-0.6777l71.95-27.93v18.61c0 5.523 4.478 10 10 10h115.6c5.523 0 10-4.477 10-10v-25.33l89.26 34.65c1.171 0.455 2.398 0.6797 3.619 0.6797 2.082 0 4.145-0.6502 5.879-1.91 2.75-1.999 4.296-5.257 4.105-8.652l-8.939-159 100.7-123.3c2.15-2.635 2.815-6.181 1.764-9.414s-3.671-5.71-6.959-6.578l-147-38.79v-44.74c0-18.88-15.36-34.25-34.24-34.25-6.916 0-13.36 2.069-18.75 5.609l-40.12-62.3c-1.841-2.858-5.009-4.586-8.408-4.586zm0 28.47 35.3 54.81c-1.462 3.804-2.271 7.929-2.271 12.24v77.34c-4.341-1.995-9.162-3.117-14.24-3.117-9.463 0-18.04 3.861-24.25 10.09-6.205-6.226-14.78-10.08-24.25-10.08-5.081 0-9.902 1.119-14.24 3.113v-40.38c0-8.632-3.218-16.52-8.508-22.55zm67.27 52.81c7.855 0 14.24 6.391 14.24 14.25v126.2c-1.094-0.105-2.201-0.1641-3.322-0.1641h-25.17v-126c0-7.855 6.389-14.25 14.24-14.25zm-145.5 36.96c7.855 0 14.25 6.391 14.25 14.25v148c0 17.48 13.17 31.93 30.1 33.98-1.83 4.451-0.232 9.695 3.998 12.3 1.635 1.007 3.446 1.488 5.234 1.488 3.356 0 6.635-1.692 8.523-4.76 12.74-20.69 35.74-33.54 60.04-33.54h10.01c5.522 0 10-4.477 10-10s-4.478-10-10-10h-35.17c-7.855 0-14.25-6.391-14.25-14.25 0-7.854 6.392-14.24 14.25-14.24h59.41c2.818 0 5.44 0.834 7.654 2.252 0.123 0.085 0.2529 0.1622 0.3809 0.2422 3.745 2.569 6.211 6.875 6.211 11.75v58.22c0 33.68-18.4 64.71-48.04 80.99-0.017 9e-3 -0.0318 0.0183-0.0488 0.0273-3e-3 1e-3 -7e-3 2e-3 -0.01 4e-3 -0.013 7e-3 -0.0222 0.0174-0.0352 0.0234-0.272 0.151-0.5389 0.3133-0.7949 0.4883-0.122 0.083-0.2336 0.1757-0.3516 0.2637-0.14 0.104-0.2801 0.2054-0.4141 0.3164-0.15 0.126-0.2906 0.2605-0.4336 0.3945-0.091 0.086-0.1864 0.1668-0.2734 0.2558-0.143 0.146-0.2762 0.2991-0.4102 0.4531-0.079 0.09-0.1613 0.1785-0.2363 0.2715-0.12 0.148-0.2298 0.3011-0.3418 0.4551-0.08 0.111-0.1642 0.2209-0.2402 0.3359-0.09 0.137-0.1709 0.278-0.2539 0.418-0.085 0.143-0.171 0.2846-0.248 0.4316-0.064 0.12-0.1178 0.2432-0.1758 0.3652-0.083 0.174-0.1653 0.3454-0.2383 0.5234-0.044 0.108-0.0811 0.2201-0.1211 0.3301-0.071 0.194-0.1422 0.3869-0.2012 0.5859-0.034 0.116-0.0608 0.2355-0.0918 0.3535-0.049 0.192-0.1007 0.3831-0.1387 0.5801-0.033 0.164-0.0522 0.3311-0.0762 0.4961-0.021 0.152-0.0494 0.3011-0.0645 0.4551-0.028 0.293-0.0419 0.5897-0.0449 0.8867 0 0.028-4e-3 0.055-4e-3 0.084v64.15h-95.63v-11.06h26.81c5.522 0 10-4.477 10-10s-4.478-10-10-10h-26.81v-25.77c5.708 3.338 11.75 6.217 18.1 8.539 1.134 0.415 2.293 0.6094 3.434 0.6094 4.079 0 7.91-2.513 9.393-6.566 1.896-5.187-0.771-10.93-5.957-12.83-36.45-13.33-60.94-48.24-60.94-86.88v-181.5c0-7.855 6.39-14.25 14.24-14.25zm179.7 42.71 126.9 33.49-93.3 114.3c-1.579 1.935-2.376 4.392-2.236 6.885l8.287 147.3-82.02-31.85v-21.65c33.01-20.46 53.28-56.52 53.28-95.51v-58.21c0-9.878-4.209-18.79-10.92-25.04zm-214 2.883v150.1c0 31.7 13.56 61.32 35.97 82.23v41.65l-64.71 25.12 8.285-147.3c0.14-2.494-0.6573-4.948-2.236-6.883l-93.3-114.3zm131.2 25.92c7.855 0 14.25 6.391 14.25 14.25v17.52h-14.25c-5.082 0-9.905 1.12-14.25 3.115v-20.63c0-7.855 6.391-14.25 14.25-14.25zm-48.49 4e-3c7.855 0 14.24 6.389 14.24 14.24v76.53c0 7.853-6.391 14.24-14.25 14.24-7.854 0-14.24-6.388-14.24-14.24v-76.53c0-7.854 6.39-14.24 14.24-14.24zm-5.389 145.8c-4.65-0.0398-8.844 3.186-9.854 7.912-0.021 0.095-0.0562 0.2757-0.0762 0.3867-1.018 5.402 2.517 10.62 7.92 11.67 0.645 0.125 1.286 0.1855 1.918 0.1855 4.691 0 8.877-3.318 9.805-8.096 6e-3 -0.028 0.0174-0.0829 0.0254-0.1309 1.051-5.343-2.378-10.56-7.725-11.71-0.675-0.1441-1.349-0.215-2.014-0.2207zm34.55 101.3c-5.523 0-10 4.477-10 10s4.477 10 10 10h0.1973c5.522 0 10-4.477 10-10s-4.478-10-10-10z"/>
</svg>
