<svg width="411" height="512" viewBox="0 0 411 512" xmlns="http://www.w3.org/2000/svg">
 <path d="m205.5 0c-113.3 0-205.5 92.18-205.5 205.5 0 65.24 19.6 128.1 56.69 181.8l81.1 117.4c3.184 4.608 8.428 7.359 14.03 7.359h107.4c5.601 0 10.84-2.751 14.03-7.359l81.1-117.4c37.09-53.68 56.69-116.5 56.69-181.8-3e-3 -113.3-92.19-205.5-205.5-205.5zm23.35 458c-0.973 1.93-2.88 5.058-5.99 7.924v-8.567c0-9.417-7.635-17.05-17.05-17.05s-17.05 7.635-17.05 17.05v9.479c-3.713-3.13-5.869-6.797-6.908-8.966-4.415-9.217-3.482-19.59 2.495-27.75 0.086-0.118 0.172-0.239 0.256-0.359l21.03-30.31 21.65 30.69c5.559 8.38 6.149 18.78 1.571 27.86zm97.4-90.07-61.35 88.79c2.91-15.7-0.297-32.18-9.413-45.75-0.073-0.109-0.147-0.215-0.222-0.322l-35.83-50.78c-3.196-4.528-8.392-7.221-13.93-7.221h-0.069c-5.566 0.023-10.77 2.76-13.94 7.334l-34.8 50.17c-9.837 13.54-13.54 30.25-10.75 46.32l-61.18-88.54c-12.59-18.22-22.92-37.63-30.89-57.89h303.3c-7.973 20.26-18.3 39.67-30.89 57.89zm-283.4-91.99c-5.791-22.82-8.758-46.43-8.758-70.39 0-94.5 76.89-171.4 171.4-171.4 94.5 0 171.4 76.89 171.4 171.4 0 23.97-2.967 47.57-8.758 70.39z"/>
</svg>
