<svg width="512" height="512" viewBox="0 0 512 512" xmlns="http://www.w3.org/2000/svg">
 <path d="m256 0c-8.285 0-15 6.715-15 15 0 8.285 6.715 15 15 15 8.285 0 15-6.715 15-15 0-8.285-6.715-15-15-15zm0 60c-8.285 0-15 6.715-15 15v107.5c-9.562 1.949-18.46 5.731-26.33 10.95l-76.05-76.05c-5.859-5.855-15.36-5.855-21.22 0-5.855 5.859-5.855 15.36 0 21.22l76.05 76.05c-5.219 7.867-9 16.77-10.95 26.33h-107.5c-8.285 0-15 6.715-15 15 0 8.285 6.715 15 15 15h107.5c1.949 9.562 5.731 18.46 10.95 26.33l-76.05 76.05c-5.855 5.859-5.855 15.36 0 21.22 2.93 2.93 6.77 4.395 10.61 4.395 3.84 0 7.68-1.465 10.61-4.395l76.05-76.05c7.871 5.219 16.77 8.999 26.33 10.95v107.5c0 8.285 6.715 15 15 15 8.281 0 15-6.715 15-15v-107.5c9.559-1.945 18.46-5.73 26.33-10.95l76.05 76.05c2.93 2.926 6.77 4.39 10.61 4.39 3.84 0 7.68-1.464 10.61-4.39 5.859-5.859 5.859-15.36 0-21.22l-76.05-76.05c5.219-7.867 9-16.77 10.95-26.33h107.5c8.285 0 15-6.719 15-15 0-8.285-6.715-15-15-15h-107.5c-1.949-9.562-5.729-18.46-10.95-26.33l76.05-76.05c5.855-5.859 5.855-15.36 0-21.22-5.859-5.855-15.36-5.855-21.22 0l-76.05 76.05c-7.867-5.219-16.77-9-26.33-10.95v-107.5c0-8.285-6.715-15-15-15zm-170.4 10.59c-3.839 0-7.678 1.465-10.61 4.395-5.859 5.859-5.859 15.35 0 21.21 5.855 5.855 15.36 5.855 21.21 0 5.859-5.859 5.859-15.35 0-21.21-2.928-2.93-6.767-4.395-10.61-4.395zm340.8 0.0029c-3.839 0-7.679 1.464-10.61 4.392-5.855 5.859-5.855 15.35 0 21.21 5.859 5.859 15.36 5.859 21.22 0 5.855-5.859 5.855-15.35 0-21.21-2.93-2.928-6.768-4.392-10.61-4.392zm-227.1 30.68c-1.948-0.0271-3.934 0.3271-5.852 1.107-7.676 3.125-11.37 11.88-8.241 19.55 3.121 7.676 11.87 11.37 19.54 8.241 7.676-3.121 11.37-11.87 8.243-19.54-2.341-5.757-7.848-9.272-13.69-9.353zm115.2 0.7295c-5.845 7e-3 -11.4 3.451-13.81 9.179-3.219 7.633 0.3594 16.43 7.992 19.65s16.43-0.3638 19.65-7.997c3.219-7.633-0.3594-16.43-7.992-19.65-1.908-0.8047-3.889-1.184-5.837-1.182zm-197.6 80.38c-5.845 7e-3 -11.4 3.453-13.81 9.177-3.219 7.633 0.3594 16.43 7.992 19.65 7.637 3.219 16.43-0.3599 19.65-7.997 3.219-7.633-0.3623-16.43-7.995-19.65-1.908-0.8047-3.889-1.185-5.837-1.182zm279 1.749c-1.948-0.0268-3.935 0.3286-5.854 1.109-7.672 3.125-11.36 11.87-8.241 19.55 3.125 7.672 11.87 11.36 19.55 8.238 7.672-3.121 11.36-11.88 8.238-19.55-2.341-5.757-7.848-9.27-13.69-9.35zm-140 26.87c24.81 0 45 20.19 45 45s-20.19 45-45 45-45-20.19-45-45 20.19-45 45-45zm-241 30c-8.285 0-15 6.715-15 15 0 8.285 6.715 15 15 15 8.285 0 15-6.715 15-15 0-8.285-6.715-15-15-15zm241 0c-8.285 0-15 6.715-15 15 0 8.285 6.715 15 15 15 8.285 0 15-6.715 15-15 0-8.285-6.715-15-15-15zm241 0c-8.285 0-15 6.715-15 15 0 8.285 6.715 15 15 15 8.285 0 15-6.715 15-15 0-8.285-6.715-15-15-15zm-380.5 56.85c-1.948-0.0271-3.935 0.3286-5.854 1.109-7.672 3.125-11.36 11.87-8.243 19.55 3.125 7.672 11.88 11.36 19.55 8.238 7.672-3.121 11.36-11.87 8.238-19.55-2.341-5.754-7.848-9.269-13.69-9.35zm278.5 1.737c-5.845 8e-3 -11.4 3.451-13.81 9.176-3.219 7.633 0.3594 16.43 7.992 19.65 7.637 3.215 16.43-0.3638 19.65-7.997 3.219-7.633-0.3623-16.43-7.995-19.65-1.908-0.8037-3.889-1.182-5.837-1.179zm-197.7 80.43c-5.845 8e-3 -11.4 3.451-13.81 9.176-3.219 7.633 0.3594 16.43 7.992 19.65 7.637 3.219 16.43-0.3594 19.65-7.992 3.215-7.637-0.3638-16.43-7.997-19.65-1.908-0.8037-3.889-1.182-5.837-1.179zm115.7 0.7119c-1.948-0.0271-3.934 0.3286-5.852 1.109-7.676 3.125-11.36 11.87-8.241 19.55 3.121 7.672 11.88 11.36 19.55 8.238 7.676-3.121 11.36-11.88 8.241-19.55-2.341-5.754-7.85-9.269-13.69-9.35zm-227.5 30.68c-3.838 0-7.677 1.465-10.61 4.395-5.859 5.855-5.859 15.36 0 21.21 5.859 5.859 15.36 5.859 21.21 0 5.859-5.855 5.859-15.36 0-21.21-2.928-2.93-6.766-4.395-10.6-4.395zm340.8 3e-3c-3.839 0-7.678 1.464-10.61 4.392-5.859 5.859-5.859 15.36 0 21.22 5.855 5.855 15.36 5.855 21.21 0 5.859-5.859 5.859-15.36 0-21.22-2.928-2.928-6.767-4.392-10.61-4.392zm-170.4 70.59c-8.285 0-15 6.715-15 15 0 8.285 6.715 15 15 15 8.285 0 15-6.715 15-15 0-8.285-6.715-15-15-15z"/>
</svg>
