<svg width="512" height="512" viewBox="0 0 512 512" xmlns="http://www.w3.org/2000/svg">
 <path d="m317 0c-8.284 0-15 6.716-15 15v30c0 8.284 6.716 15 15 15s15-6.716 15-15v-30c0-8.284-6.716-15-15-15zm-148.2 31.26c-3.839 0-7.678 1.464-10.61 4.393-5.858 5.857-5.858 15.35 0 21.21l42.43 42.43c5.858 5.858 15.35 5.859 21.21 0 5.858-5.857 5.858-15.36 0-21.21l-42.43-42.43c-2.928-2.929-6.767-4.393-10.61-4.393zm297 0c-3.839-1.25e-4 -7.678 1.464-10.61 4.393l-42.43 42.43c-5.858 5.858-5.858 15.36 0 21.21 5.857 5.858 15.36 5.859 21.21 0l42.43-42.43c5.858-5.858 5.858-15.35 0-21.21-2.928-2.928-6.767-4.392-10.61-4.393zm-148.5 58.49c-8.284 0-15 6.716-15 15 0 41.36-33.64 75-75 75-8.284 0-15 6.716-15 15s6.716 15 15 15c3.598 0 7.134 0.2717 10.6 0.7637l-143.3 143.3c-5.858 5.858-5.858 15.35 0 21.21l10.61 10.61-100.7 100.7c-5.858 5.858-5.858 15.35 0 21.21 5.857 5.858 15.35 5.859 21.21 0l100.7-100.7 10.61 10.61c5.857 5.857 15.35 5.859 21.21 0l143.3-143.3c0.492 3.464 0.7617 7 0.7617 10.6 0 8.284 6.716 15 15 15s15-6.716 15-15c0-41.36 33.64-75 75-75 8.285 0 15-6.716 15-15s-6.716-15-15-15c-41.36 0-75-33.64-75-75 0-8.284-6.716-15-15-15zm0 69.03c8.871 14.72 21.25 27.1 35.97 35.97-14.72 8.871-27.1 21.25-35.97 35.97-8.871-14.72-21.25-27.1-35.97-35.97 14.72-8.871 27.1-21.25 35.97-35.97zm-180.2 21.22c-8.284 0-15 6.716-15 15s6.716 15 15 15h30c8.284 0 15-6.716 15-15s-6.716-15-15-15h-30zm330 0c-8.284 0-15 6.716-15 15s6.716 15 15 15h30c8.284 0 15-6.716 15-15s-6.715-15-15-15h-30zm-198.4 42.21c8.412 5.577 15.63 12.8 21.21 21.21l-36.18 36.18-21.21-21.21 36.18-36.18zm-57.39 57.39 21.21 21.21-84.85 84.85-21.21-21.21 84.85-84.85zm212.1 6.215c-3.839 0-7.678 1.464-10.61 4.393-5.858 5.857-5.858 15.35 0 21.21l42.43 42.43c5.857 5.858 15.35 5.858 21.21 0 5.858-5.857 5.858-15.35 0-21.21l-42.43-42.43c-2.928-2.929-6.767-4.393-10.61-4.393zm-106.3 44.18c-8.284 0-15 6.716-15 15v30c0 8.284 6.716 15 15 15s15-6.716 15-15v-30c0-8.284-6.715-15-15-15z"/>
</svg>
