<svg width="512" height="506.2" viewBox="0 0 512 506.2" xmlns="http://www.w3.org/2000/svg">
 <path d="m411.5 0.008704c-4.259-0.1786-8.319 2.402-9.829 6.63l-17.86 49.93c-1.859 5.199 0.8482 10.92 6.051 12.78 1.113 0.3984 2.246 0.59 3.367 0.59 4.102 0 7.953-2.551 9.414-6.637l17.85-49.93c1.859-5.203-0.8507-10.93-6.05-12.79-0.9748-0.3486-1.969-0.5371-2.952-0.5783zm-260.9 7.817c-5.52 0-10 4.476-10 10 0 14.5-5.646 28.14-15.9 38.39-10.26 10.25-23.89 15.9-38.39 15.9-5.52 0-10 4.476-10 10 0 5.52 4.476 10 10 10 29.94 0 54.29 24.36 54.29 54.29 0 5.523 4.48 10 10 10 5.523 0 10-4.476 10-10 0-29.94 24.36-54.29 54.29-54.29 5.523 0 10-4.476 10-10 0-5.523-4.476-10-10-10-29.94 0-54.29-24.36-54.29-54.29 0-5.523-4.476-10-10-10zm307.2 38.37c-2.559 0-5.119 0.9754-7.074 2.927l-86.45 86.46c-5.086-4.395-11.5-6.8-18.3-6.8-7.492 0-14.53 2.913-19.82 8.21l-19.63 19.63h-78.03c-5.52 0-10 4.476-10 10s4.48 10 10 10h58.03l-107.4 107.4c-3.906 3.906-3.906 10.24 0 14.14 3.906 3.902 10.24 3.902 14.14 0l147-147c1.516-1.52 3.536-2.351 5.68-2.351 2.148 0 4.164 0.8356 5.68 2.351l3.44 3.442c1.52 1.516 2.356 3.536 2.356 5.68 0 2.148-0.8362 4.163-2.356 5.683l-226.1 226.1c-3.137 3.133-8.23 3.133-11.36 0l-3.442-3.442c-1.516-1.516-2.351-3.536-2.351-5.68s0.8356-4.164 2.351-5.68l22.23-22.23c3.906-3.906 3.906-10.24 0-14.14-3.906-3.902-10.24-3.902-14.14 0l-22.23 22.23c-5.297 5.297-8.212 12.34-8.212 19.82 0 4.895 1.25 9.59 3.59 13.74l-92.52 92.52c-3.906 3.906-3.906 10.24 0 14.14 1.953 1.953 4.511 2.93 7.07 2.93 2.559 0 5.117-0.9764 7.07-2.93l92.54-92.54c4.246 2.387 8.988 3.59 13.73 3.59 7.18 0 14.36-2.734 19.82-8.199l209.5-209.5 59.78 59.78c1.953 1.953 4.511 2.93 7.07 2.93 2.559 0 5.117-0.9764 7.07-2.93 3.906-3.902 3.906-10.23 0-14.14l-59.78-59.78 2.426-2.429c5.297-5.293 8.21-12.34 8.21-19.82 0-2.859-0.4263-5.657-1.25-8.313l88.67-88.67c3.906-3.906 3.906-10.24 0-14.14-1.953-1.951-4.512-2.927-7.071-2.927zm-307.2 8.877c6.516 11.2 15.87 20.54 27.07 27.05-11.22 6.512-20.58 15.88-27.1 27.09-6.508-11.2-15.86-20.55-27.05-27.07 5.523-3.207 10.66-7.153 15.29-11.79 4.633-4.633 8.579-9.768 11.79-15.29zm195.6 1.914c-5.523 0-10 4.476-10 10v30.27c0 5.523 4.478 9.999 10 9.999 5.52 0 10-4.476 10-9.999v-30.27c0-5.523-4.48-10-10-10zm-88.2 18.57c-2.56 0-5.12 0.9764-7.073 2.93-3.906 3.902-3.906 10.23 0 14.14l44.52 44.52c1.953 1.953 4.511 2.931 7.07 2.931s5.117-0.9779 7.07-2.931c3.906-3.906 3.906-10.24 0-14.14l-44.52-44.52c-1.953-1.953-4.513-2.93-7.073-2.93zm147.3 81.07c-5.52 0-10 4.476-10 10s4.481 10 10 10h58.83c5.523 0 10-4.476 10-10s-4.476-10-10-10zm-215.6 0.022c-0.7812 0.0225-1.563 0.1376-2.328 0.3493-4.195 1.164-7.227 5.018-7.328 9.382-0.207 8.898 11.03 13.64 17.21 7.157 3.195-3.352 3.665-8.601 1.091-12.46-1.892-2.898-5.264-4.524-8.649-4.427zm156.5 76.85c-5.523 0-10 4.478-10 10v130.9c0 5.523 4.478 10 10 10 5.52 0 10-4.478 10-10v-130.9c0-5.523-4.48-10-10-10zm113.1 31.78c-5.523 0-10 4.476-10 10-4e-3 18.04-14.67 32.72-32.71 32.72-5.523 0-10 4.476-10 10 0 5.52 4.478 10 10 10 8.738 0 16.95 3.402 23.13 9.581 6.18 6.18 9.583 14.39 9.583 23.13 0 5.523 4.476 10 10 10s10-4.478 10-10c0-18.04 14.68-32.71 32.72-32.71 5.523 0 10-4.478 10-10 0-5.523-4.476-10-10-10-8.738 0-16.95-3.403-23.13-9.583-6.176-6.18-9.578-14.39-9.578-23.13 0-5.523-4.476-10-10-10zm-160.3 25.19c-3.898 0.0269-7.584 2.346-9.169 6.169l-12.84 30.96c-2.113 5.102 0.304 10.95 5.406 13.07 1.254 0.5195 2.55 0.7662 3.828 0.7662 3.922 0 7.645-2.32 9.239-6.172l12.84-30.95c2.113-5.102-0.304-10.95-5.406-13.07-1.276-0.5293-2.599-0.7751-3.898-0.7662zm160.3 15.69c1.633 2.25 3.455 4.384 5.458 6.387 2.004 2.004 4.14 3.829 6.39 5.461-4.531 3.285-8.525 7.276-11.81 11.81-1.633-2.25-3.453-4.386-5.457-6.39-2.004-2.004-4.14-3.824-6.39-5.457 4.531-3.289 8.523-7.278 11.81-11.81zm-303.1 1.959c-4.575 0.071-9.084 3.139-9.886 8.401-1.383 9.016 9.669 14.96 16.47 8.984 3.723-3.27 4.488-8.942 1.73-13.07-2.026-3.014-5.187-4.367-8.318-4.318z"/>
</svg>
