<svg width="482" height="512" viewBox="0 0 482 512" xmlns="http://www.w3.org/2000/svg">
 <path d="m132.2 0c-5.52 0-9.999 4.477-9.999 10v9.527h-9.524c-5.523 0-9.999 4.476-9.999 9.999 0 5.523 4.476 10 9.999 10h9.524v9.527c0 5.523 4.48 10 9.999 10 5.523 0 10-4.477 10-10v-9.527h9.527c5.523 0 10-4.477 10-10 0-5.523-4.477-9.999-10-9.999h-9.527v-9.527c0-5.523-4.477-10-10-10zm108.5 0c-10.12 0-19.76 4.356-26.44 11.95-6.688 7.59-9.797 17.7-8.524 27.74l25.05 197.5c0.6367 4.996 4.886 8.742 9.921 8.742s9.29-3.746 9.923-8.742l25.05-197.5c1.273-10.04-1.835-20.15-8.522-27.74-6.691-7.586-16.33-11.94-26.45-11.94zm0 20c4.438 0 8.504 1.836 11.44 5.168 2.938 3.332 4.247 7.594 3.688 12l-15.13 119.3-15.12-119.3c-0.5625-4.406 0.7505-8.668 3.684-12 2.938-3.332 6.999-5.168 11.44-5.168zm158.3 37.35c-4 0.118-7.667 2.699-9.088 6.475-1.621 4.305-4e-3 9.273 3.809 11.84 3.469 2.312 8.161 2.202 11.5-0.29 3.352-2.492 4.824-6.933 3.605-10.93-1.211-3.988-4.864-6.856-9.028-7.083-0.269-0.01441-0.5361-0.01665-0.8027-0.0088zm-36.52 30.6c-1.925 0.0744-3.848 0.7046-5.518 1.929-26.41 19.37-55.16 61.43-56.38 63.22-3.102 4.566-1.918 10.79 2.648 13.89 1.723 1.168 3.68 1.73 5.613 1.73 3.199 0 6.344-1.531 8.278-4.378 0.2774-0.4063 28.01-40.98 51.67-58.33 4.453-3.266 5.413-9.524 2.147-13.98-2.041-2.786-5.25-4.205-8.458-4.081zm-249.4 0.0015c-3.208-0.1232-6.418 1.296-8.459 4.08-3.266 4.453-2.306 10.71 2.147 13.98 23.62 17.32 51.39 57.93 51.67 58.34 1.937 2.844 5.079 4.374 8.278 4.374 1.938 0 3.895-0.5625 5.613-1.734 4.566-3.105 5.75-9.323 2.648-13.89-1.211-1.781-29.97-43.85-56.37-63.22-1.671-1.225-3.596-1.854-5.521-1.928zm-103.2 52.74c-4.647 0.0915-8.752 3.434-9.627 8.188-1 5.43 2.589 10.64 8.023 11.64 90.45 16.66 179.7 76.91 180.6 77.52 1.723 1.172 3.685 1.734 5.622 1.734 3.195 0 6.336-1.527 8.273-4.371 3.109-4.562 1.929-10.78-2.634-13.89-3.777-2.574-93.56-63.21-188.2-80.66-0.6782-0.125-1.353-0.1786-2.017-0.1655zm462.4 0c-0.6642-0.013-1.34 0.0405-2.019 0.1655-94.68 17.44-184.5 78.08-188.2 80.66-4.562 3.109-5.743 9.332-2.634 13.89 1.938 2.844 5.078 4.371 8.273 4.371 1.937 0 3.898-0.5615 5.625-1.737 0.8867-0.6055 90.02-60.83 180.6-77.52 5.434-1 9.023-6.214 8.023-11.64-0.875-4.754-4.976-8.097-9.625-8.188zm-344.1 92.43c-0.6648-0.0212-1.341 0.0239-2.023 0.1406-1.73 0.2969-42.7 7.477-71.04 25.09-4.691 2.914-6.133 9.082-3.215 13.77 1.891 3.051 5.161 4.723 8.5 4.723 1.805 0 3.628-0.4853 5.269-1.509 24.98-15.53 63.49-22.3 63.87-22.37 5.441-0.9336 9.097-6.106 8.159-11.55-0.8169-4.761-4.869-8.155-9.523-8.304zm219.3 0c-4.655 0.1488-8.706 3.543-9.523 8.304-0.9375 5.445 2.719 10.61 8.161 11.55 0.3867 0.0664 38.81 6.789 63.87 22.37 1.641 1.02 3.464 1.507 5.265 1.507 3.344 0 6.61-1.676 8.505-4.723 2.914-4.691 1.476-10.86-3.215-13.77-28.34-17.61-69.31-24.79-71.04-25.09-0.6821-0.1167-1.359-0.1619-2.024-0.1406zm-129.8 23.73c-0.5656-0.0198-1.138 7e-3 -1.714 0.0864-1.48 0.207-36.75 5.243-75.97 25.5-52.59 27.16-86.89 68.86-99.2 120.6-3.289 13.83 2.458 28.53 14.3 36.59 5.852 3.98 12.67 6.021 19.54 6.021 4.277 0 8.578-0.7896 12.68-2.395 10.69-4.188 18.6-13.37 21.18-24.56 8.293-36.03 34.87-90.18 114.4-143.6 3.867-2.594 5.43-7.515 3.773-11.86-1.453-3.808-5.04-6.296-9-6.435zm46.09 0c-3.965 0.1388-7.543 2.627-8.993 6.435-1.66 4.352-0.0942 9.269 3.769 11.86 79.54 53.37 106.1 107.5 114.4 143.6 2.574 11.19 10.49 20.37 21.18 24.56 4.102 1.605 8.398 2.395 12.68 2.395 6.871 0 13.69-2.04 19.54-6.021 11.84-8.059 17.59-22.76 14.3-36.59-12.31-51.75-46.61-93.45-99.2-120.6-39.22-20.25-74.49-25.29-75.97-25.5-0.5772-0.0791-1.152-0.1062-1.718-0.0864zm-94.44 34.13c-52.69 46.24-72.95 91.17-80.33 123.2-1.109 4.82-4.386 8.618-8.984 10.42-4.602 1.801-9.583 1.242-13.67-1.54-5.023-3.418-7.473-9.616-6.094-15.42 11.04-46.37 40.77-82.44 88.38-107.2 7.078-3.684 14.05-6.829 20.7-9.508zm142.8 0c6.645 2.68 13.62 5.829 20.7 9.508 47.61 24.75 77.34 60.81 88.38 107.2 1.383 5.805-1.066 12-6.094 15.42-4.086 2.781-9.066 3.34-13.66 1.54-4.602-1.805-7.876-5.602-8.985-10.42-7.379-32.07-27.64-77-80.33-123.2zm-71.35 2.587c-5.523 0-9.999 4.476-9.999 9.999v198.4c0 5.523 4.476 9.999 9.999 9.999 5.52 0 10-4.476 10-9.999v-198.4c0-5.52-4.477-9.999-10-9.999zm48.2 42.53c-1.611-0.0683-3.263 0.2546-4.813 1.015-4.961 2.426-7.012 8.417-4.582 13.38 0.1992 0.4063 20.08 41.35 20.08 69.52 0 5.523 4.48 9.999 9.999 9.999 5.523 0 10-4.476 10-9.999 0-32.75-21.21-76.47-22.12-78.32-1.668-3.408-5.021-5.447-8.566-5.597zm-94.71 3e-3c-3.544 0.1502-6.897 2.186-8.565 5.594-0.9063 1.848-22.12 45.57-22.12 78.31 0 5.523 4.476 10 9.999 10 5.52 0 10-4.477 10-10 0-28.09 19.88-69.11 20.09-69.52 2.426-4.961 0.3716-10.95-4.589-13.37-1.549-0.7593-3.2-1.08-4.811-1.012zm153.6 116.8c-5.523 0-9.999 4.477-9.999 10v9.527h-9.527c-5.523 0-10 4.481-10 10 0 5.523 4.477 9.999 10 9.999h9.527v9.527c0 5.523 4.476 10 9.999 10 5.52 0 10-4.477 10-10v-9.527h9.523c5.523 0 10-4.476 10-9.999 0-5.523-4.473-10-10-10h-9.523v-9.527c0-5.523-4.481-10-10-10zm-174.8 3.352c-0.264-3e-3 -0.5293 5e-3 -0.7954 0.0234-4.145 0.2852-7.75 3.239-8.895 7.223-1.148 4.008 0.3916 8.453 3.794 10.87 3.371 2.395 7.925 2.462 11.37 0.1846 3.941-2.602 5.461-7.794 3.68-12.14-1.538-3.695-5.194-6.12-9.154-6.164z"/>
</svg>
