<svg width="512" height="512" viewBox="0 0 512 512" xmlns="http://www.w3.org/2000/svg">
 <path d="m93.64 0c-16.54 0-30 13.46-30 30s13.46 30 30 30c16.54 0 30-13.46 30-30s-13.46-30-30-30zm324.7 0c-16.54 0-30 13.46-30 30s13.46 30 30 30 30-13.46 30-30-13.46-30-30-30zm-324.7 20c5.515 0 10 4.486 10 10s-4.487 10-10 10c-5.514 0-10-4.486-10-10s4.486-10 10-10zm324.7 0c5.514 0 10 4.486 10 10s-4.486 10-10 10-10-4.486-10-10 4.486-10 10-10zm-163.2 21.3c-5.508 0-10 4.492-10 10 0 5.509 4.492 10 10 10 5.508 0 10-4.491 10-10 0-5.508-4.492-10-10-10zm-111.8 6.012c-3.547-0.05204-7.011 1.789-8.873 5.098-2.706 4.815-0.9986 10.91 3.814 13.62 15.12 8.505 30.53 33.02 33.64 53.54 0.752 4.952 5.014 8.5 9.873 8.5 0.499 0 1.007-0.0363 1.516-0.1133 5.46-0.829 9.214-5.929 8.385-11.39-4.044-26.63-23.2-56.48-43.61-67.96-1.504-0.8462-3.134-1.262-4.746-1.285zm225.2 2e-3c-1.612 0.02377-3.241 0.4386-4.746 1.285-20.41 11.48-39.57 41.33-43.61 67.96-0.829 5.46 2.927 10.56 8.387 11.39 0.509 0.077 1.015 0.1133 1.514 0.1133 4.86 0 9.122-3.548 9.873-8.5 3.115-20.51 18.52-45.03 33.64-53.54 4.813-2.708 6.521-8.804 3.814-13.62-1.861-3.309-5.326-5.15-8.873-5.098zm-112.6 48.15c-3.424 0-6.609 1.753-8.443 4.645l-23.1 36.42-41.78 10.71c-3.317 0.851-5.967 3.341-7.025 6.598s-0.3764 6.829 1.807 9.467l27.5 33.23-2.721 43.04c-0.216 3.418 1.333 6.708 4.104 8.721s6.377 2.468 9.561 1.207l40.1-15.89 40.1 15.89c1.19 0.472 2.438 0.7031 3.682 0.7031 2.081 0 4.145-0.6492 5.879-1.91 2.771-2.013 4.32-5.303 4.104-8.721l-2.719-43.04 27.5-33.22c2.182-2.638 2.865-6.21 1.807-9.467s-3.711-5.747-7.027-6.598l-41.78-10.71-23.1-36.42c-1.834-2.892-5.021-4.645-8.445-4.645zm0 28.67 16.78 26.45c1.363 2.149 3.496 3.697 5.961 4.33l30.35 7.783-19.97 24.13c-1.623 1.96-2.436 4.467-2.275 7.008l1.975 31.26-29.12-11.54c-1.183-0.469-2.434-0.7031-3.684-0.7031s-2.501 0.2341-3.684 0.7031l-29.12 11.54 1.975-31.26c0.161-2.541-0.6524-5.047-2.275-7.008l-19.97-24.13 30.34-7.783c2.465-0.633 4.598-2.181 5.961-4.33zm149.2 10.17c-5.508 0-10 4.492-10 10s4.492 10 10 10c5.508 0 10-4.492 10-10s-4.492-10-10-10zm-279 3c-5.508 0-10 4.492-10 10 0 5.509 4.492 10 10 10 5.508 0 10-4.491 10-10 0-5.508-4.492-10-10-10zm-74.71 23.73c-2.505 0.1092-4.912 1.163-6.709 2.998l-14.48 14.79-20.69 0.8613c-3.421 0.143-6.532 2.026-8.244 4.992-1.712 2.966-1.787 6.601-0.1992 9.635l9.596 18.34-5.572 19.94c-0.922 3.298-0.09178 6.838 2.199 9.383 2.292 2.545 5.728 3.744 9.102 3.168l20.41-3.457 17.24 11.46c1.667 1.107 3.596 1.672 5.537 1.672 1.38 0 2.766-0.2862 4.066-0.8652 3.128-1.393 5.326-4.29 5.826-7.678l3.02-20.48 16.23-12.85c2.685-2.127 4.094-5.48 3.736-8.885-0.358-3.406-2.435-6.391-5.502-7.912l-18.54-9.201-7.213-19.4c-1.193-3.21-3.945-5.587-7.295-6.299-0.838-0.1792-1.683-0.2473-2.518-0.2109zm409.1 0c-0.8348-0.0365-1.68 0.0319-2.518 0.2109-3.35 0.712-6.103 3.089-7.295 6.299l-7.211 19.4-18.54 9.201c-3.067 1.521-5.142 4.506-5.5 7.912-0.358 3.405 1.052 6.758 3.736 8.885l16.23 12.85 3.02 20.48c0.5 3.388 2.695 6.285 5.824 7.678 1.3 0.579 2.686 0.8652 4.066 0.8652 1.94 0 3.871-0.5639 5.537-1.672l17.24-11.46 20.41 3.457c0.59 0.101 1.193 0.1526 1.768 0.1406 5.488-0.042 9.924-4.503 9.924-10 0-1.166-0.1994-2.285-0.5664-3.326l-5.395-19.3 9.596-18.34c1.586-3.034 1.511-6.669-0.2012-9.635s-4.823-4.85-8.244-4.992l-20.69-0.8613-14.48-14.79c-1.796-1.835-4.205-2.889-6.709-2.998zm-412.5 28.25 3.1 8.342c0.886 2.386 2.65 4.344 4.93 5.475l7.971 3.955-6.977 5.523c-1.995 1.581-3.313 3.862-3.684 6.381l-1.297 8.803-7.41-4.926c-1.651-1.097-3.578-1.674-5.535-1.674-0.556 0-1.115 0.0476-1.67 0.1426l-8.773 1.484 2.395-8.568c0.685-2.451 0.4105-5.072-0.7695-7.328l-4.123-7.883 8.891-0.3711c2.543-0.105 4.95-1.178 6.73-2.996zm416 0 6.225 6.359c1.78 1.818 4.187 2.891 6.73 2.996l8.891 0.3711-4.123 7.883c-1.18 2.257-1.457 4.877-0.7715 7.328l2.396 8.568-8.773-1.484c-2.509-0.427-5.088 0.1232-7.207 1.531l-7.41 4.926-1.297-8.803c-0.371-2.519-1.689-4.8-3.684-6.381l-6.975-5.525 7.971-3.953c2.28-1.131 4.042-3.091 4.928-5.477zm-356.8 49.15c-2.881-0.0813-5.773 1.076-7.816 3.416-3.634 4.159-3.209 10.48 0.9492 14.11 21.09 18.43 56.48 65.51 56.48 173.7 0 5.522 4.477 10 10 10s10-4.478 10-10c0-49.95-7.196-92.8-21.39-127.4-10.53-25.64-24.64-46.3-41.93-61.41-1.82-1.591-4.053-2.404-6.293-2.467zm297.7 0c-2.24 0.0632-4.474 0.876-6.293 2.467-17.29 15.11-31.4 35.77-41.93 61.41-14.19 34.56-21.39 77.41-21.39 127.4 0 5.522 4.477 10 10 10s10-4.478 10-10c0-108.2 35.38-155.3 56.48-173.7 4.157-3.634 4.582-9.95 0.9492-14.11-2.045-2.34-4.938-3.499-7.818-3.418zm-148.8 40.24c-5.523 0-10 4.478-10 10v213.3c0 5.522 4.477 10 10 10s10-4.477 10-10v-213.3c0-5.523-4.477-10-10-10zm56.26 4.498c-5.508 0-10 4.492-10 10s4.492 10 10 10 10-4.492 10-10-4.492-10-10-10zm-111.8 4.5c-5.508 0-10 4.492-10 10s4.492 10 10 10 10-4.492 10-10-4.492-10-10-10zm-116.3 58.12c-5.508 0-10 4.492-10 10s4.492 10 10 10 10-4.492 10-10-4.492-10-10-10zm333 0c-5.509 0-10 4.492-10 10s4.491 10 10 10c5.508 0 10-4.492 10-10 0-5.508-4.492-10-10-10zm-250.4 102.8c-5.508 0-10 4.493-10 10 0 5.509 4.492 10 10 10s10-4.493 10-10c0-5.507-4.492-10-10-10zm178.4 0c-5.509 0-10 4.493-10 10 0 5.509 4.491 10 10 10 5.508 0 10-4.493 10-10 0-5.507-4.492-10-10-10z"/>
</svg>
