<svg width="512" height="512" viewBox="0 0 512 512" xmlns="http://www.w3.org/2000/svg">
 <path d="m256 0a15 15 0 0 0-15 15 15 15 0 0 0 15 15 15 15 0 0 0 15-15 15 15 0 0 0-15-15zm211 0c-8.284 0-15 6.716-15 15v15h-15c-8.284 0-15 6.716-15 15s6.716 15 15 15h15v15c0 8.284 6.716 15 15 15s15-6.716 15-15v-15h15c8.284 0 15-6.716 15-15s-6.716-15-15-15h-15v-15c0-8.284-6.716-15-15-15zm-392 30c-8.284 0-15 6.716-15 15v15h-15c-8.284 0-15 6.716-15 15s6.716 15 15 15h15v15c0 8.284 6.716 15 15 15s15-6.716 15-15v-15h15c8.284 0 15-6.716 15-15s-6.716-15-15-15h-15v-15c0-8.284-6.716-15-15-15zm120 30a15 15 0 0 0-15 15 15 15 0 0 0 15 15 15 15 0 0 0 15-15 15 15 0 0 0-15-15zm61 0c-8.284 0-15 6.716-15 15v37.11c0 8.284 6.716 15 15 15s15-6.716 15-15v-37.11c0-8.284-6.716-15-15-15zm61 0a15 15 0 0 0-15 15 15 15 0 0 0 15 15 15 15 0 0 0 15-15 15 15 0 0 0-15-15zm102.2 17.69c-3.839 0.02463-7.668 1.513-10.58 4.461l-77.46 78.46c-5.819 5.896-5.759 15.39 0.1367 21.21 5.898 5.823 15.39 5.758 21.21-0.1348l77.46-78.46c5.819-5.896 5.759-15.39-0.1367-21.21-2.948-2.91-6.796-4.351-10.63-4.326zm-296.4 30c-3.839-0.0401-7.692 1.384-10.65 4.283-5.919 5.796-6.017 15.29-0.2207 21.21l47.46 48.46c5.802 5.922 15.3 6.014 21.21 0.2207 5.919-5.796 6.017-15.29 0.2207-21.21l-47.46-48.46c-2.899-2.96-6.724-4.464-10.56-4.504zm132.3 50.42c-5.709 0-10.92 3.242-13.45 8.361l-24.59 49.82-55.98 8.004c-5.658 0.809-10.37 4.762-12.14 10.2-1.772 5.434-0.302 11.4 3.791 15.39l39.82 38.81-9.42 55.8c-0.945 5.604 1.355 11.26 5.945 14.61 4.535 3.311 10.62 3.85 15.73 1.211l50.29-25.98 50.29 25.98c5.049 2.609 11.14 2.14 15.73-1.211s6.891-9.007 5.945-14.61l-9.42-55.8 39.82-38.81c4.094-3.991 5.565-9.959 3.793-15.39s-6.48-9.388-12.14-10.2l-55.98-8.004-24.59-49.82c-2.526-5.121-7.741-8.361-13.45-8.361zm-180.1 22.89a15 15 0 0 0-15 15 15 15 0 0 0 15 15 15 15 0 0 0 15-15 15 15 0 0 0-15-15zm362 0a15 15 0 0 0-15 15 15 15 0 0 0 15 15 15 15 0 0 0 15-15 15 15 0 0 0-15-15zm-181.9 26 14.64 29.66c2.19 4.438 6.429 7.511 11.33 8.211l33.63 4.811-23.62 23.03c-3.525 3.437-5.14 8.384-4.32 13.24l5.732 33.95-30.5-15.76c-4.318-2.23-9.449-2.23-13.77 0l-30.51 15.76 5.73-33.95c0.819-4.854-0.7934-9.802-4.318-13.24l-23.62-23.03 33.63-4.811c4.899-0.701 9.138-3.771 11.33-8.209zm-240.1 34a15 15 0 0 0-15 15 15 15 0 0 0 15 15 15 15 0 0 0 15-15 15 15 0 0 0-15-15zm60 0c-8.284 0-15 6.716-15 15s6.716 15 15 15h30.63c8.284 0 15-6.716 15-15s-6.716-15-15-15zm329.6 0c-8.284 0-15 6.716-15 15s6.716 15 15 15h39.54c8.284 0 15-6.716 15-15s-6.716-15-15-15zm92.42 0a15 15 0 0 0-15 15 15 15 0 0 0 15 15 15 15 0 0 0 15-15 15 15 0 0 0-15-15zm-422 61a15 15 0 0 0-15 15 15 15 0 0 0 15 15 15 15 0 0 0 15-15 15 15 0 0 0-15-15zm362 0a15 15 0 0 0-15 15 15 15 0 0 0 15 15 15 15 0 0 0 15-15 15 15 0 0 0-15-15zm-68.64 51.36c-3.839-1.2e-4 -7.678 1.464-10.61 4.393-5.858 5.858-5.858 15.35 0 21.21l15.93 15.92c5.857 5.857 15.35 5.858 21.21 0s5.858-15.35 0-21.21l-15.92-15.92c-2.928-2.928-6.769-4.392-10.61-4.393zm-226 1.281c-3.839 0-7.676 1.464-10.61 4.393l-44.64 44.64c-5.858 5.858-5.858 15.35 0 21.21 5.857 5.858 15.36 5.858 21.21 0l44.64-44.64c5.858-5.858 5.858-15.35 0-21.21-2.928-2.929-6.769-4.393-10.61-4.393zm113.6 15.61c-8.284 0-15 6.716-15 15v58.87c0 8.284 6.716 15 15 15s15-6.716 15-15v-58.87c0-8.284-6.716-15-15-15zm181 21.75c-8.284 0-15 6.716-15 15v15h-15c-8.284 0-15 6.716-15 15s6.716 15 15 15h15v15c0 8.284 6.716 15 15 15s15-6.716 15-15v-15h15c8.284 0 15-6.716 15-15s-6.716-15-15-15h-15v-15c0-8.284-6.716-15-15-15zm-392 30c-8.284 0-15 6.716-15 15v15h-15c-8.284 0-15 6.716-15 15s6.716 15 15 15h15v15c0 8.284 6.716 15 15 15s15-6.716 15-15v-15h15c8.284 0 15-6.716 15-15s-6.716-15-15-15h-15v-15c0-8.284-6.716-15-15-15zm150 0a15 15 0 0 0-15 15 15 15 0 0 0 15 15 15 15 0 0 0 15-15 15 15 0 0 0-15-15zm122 0a15 15 0 0 0-15 15 15 15 0 0 0 15 15 15 15 0 0 0 15-15 15 15 0 0 0-15-15zm-61 60a15 15 0 0 0-15 15 15 15 0 0 0 15 15 15 15 0 0 0 15-15 15 15 0 0 0-15-15z"/>
</svg>
