<svg width="512" height="512" viewBox="0 0 512 512" xmlns="http://www.w3.org/2000/svg">
 <path d="m61 0v30h10.13c50.08 0 94.54 32.45 110.6 80.74l28.46-9.484c-19.73-59.19-75.21-101.3-139.1-101.3zm379.9 0c-63.9 0-119.4 42.08-139.1 101.3l28.46 9.486c16.1-48.3 60.56-80.74 110.6-80.74h10.13v-30zm-184.9 102.1-33.06 66.98-73.91 10.74 53.49 52.14-12.63 73.61 66.11-34.76 66.11 34.76-12.63-73.61 53.48-52.14-73.91-10.74zm-256 18.89v30h30v-30zm60 0v30h106v-30zm286 0v30h106v-30zm136 0v30h30v-30zm-226 48.89 13.13 26.61 29.37 4.268-21.25 20.71 5.016 29.25-26.27-13.81-26.27 13.81 5.018-29.25-21.25-20.71 29.37-4.268zm-135 41.11c-66.72 0-121 53.83-121 120h30c0-49.63 40.82-90 91-90zm270 0v30c51.03 0 91 39.53 91 90h30c0-67.29-53.15-120-121-120zm-30.75 68.03-21.21 21.21 74.25 74.25 21.21-21.21zm-208.5 4e-3 -74.24 74.24 21.21 21.21 74.24-74.24zm33.64 56.36-6.967 6.967c-18.3 18.3-32.6 39.7-42.5 63.61-9.903 23.91-14.93 49.15-14.93 75.03h30c0-44.36 17.27-86.06 48.64-117.4l6.967-6.967zm141.2 0-21.21 21.21 6.967 6.967c31.37 31.36 48.64 73.07 48.64 117.4h30c0-50.57-19.62-100.8-57.43-138.6zm-85.61 25.61v91h30v-91zm214.7 13.49-21.21 21.21 21.21 21.21 21.21-21.21zm-399.4 8e-3 -21.21 21.21 21.21 21.21 21.21-21.21zm184.7 107.5v30h30v-30z"/>
</svg>
