<svg width="512" height="512" viewBox="0 0 512 512" xmlns="http://www.w3.org/2000/svg">
 <path d="m121 0c-4.344 0-8.473 1.883-11.32 5.161l-106 122c-3.852 4.437-4.761 10.71-2.323 16.06 2.438 5.348 7.773 8.777 13.65 8.777h15v225c0 8.285 6.715 15 15 15h15v15c0 24.81-20.19 45-45 45-8.285 0-15 6.715-15 15 0 8.285 6.715 15 15 15 41.36 0 75-33.64 75-75v-15h31v105c0 8.285 6.715 15 15 15 8.285 0 15-6.715 15-15v-105h45c8.285 0 15-6.715 15-15v-225h15c5.863 0 11.19-3.417 13.63-8.745s1.563-11.59-2.265-16.04l-105-122c-2.84-3.301-6.977-5.203-11.33-5.215zm270 0c-4.355 0.01172-8.492 1.914-11.33 5.215l-105 122c-3.828 4.445-4.711 10.71-2.266 16.04 2.445 5.332 7.77 8.745 13.63 8.745h15v225c0 8.285 6.715 15 15 15h45v105c0 8.285 6.715 15 15 15 8.285 0 15-6.715 15-15v-105h30v15c0 41.46 34.53 75 76 75 8.285 0 15-6.715 15-15 0-8.285-6.715-15-15-15-24.93 0-46-20.61-46-45v-15h15c8.285 0 15-6.715 15-15v-225h16c5.875 0 11.21-3.43 13.65-8.777 2.438-5.348 1.527-11.62-2.325-16.06l-106-122c-2.852-3.277-6.979-5.161-11.32-5.161zm-270 37.93 72.36 84.07h-145.4zm270.1 0 73.04 84.07h-145.4zm-331.1 114.1h39.79l81.22 81.22v65.61l-121-130.2zm82.21 0h38.79v38.79zm188.8 0h38.78l-38.78 38.79zm81.21 0h38.79v16.64l-120 130v-65.42zm-352.2 60.68 121 130.2v19.1h-38.84l-82.16-81.26zm391 0.1846v67.92l-81.22 81.21h-38.78v-19.14zm-391 110.1 39.5 39.07h-39.5zm391 0.2812v38.78h-38.79z"/>
</svg>
