<svg width="372.8" height="512" viewBox="0 0 372.8 512" xmlns="http://www.w3.org/2000/svg">
 <path d="m234.6 0c-8.371 0-15.16 6.786-15.16 15.16v22.95c0 8.371 6.784 15.16 15.16 15.16 8.371 0 15.16-6.79 15.16-15.16v-22.95c0-8.371-6.79-15.16-15.16-15.16zm-54.76 22.68c-3.879 0-7.758 1.479-10.72 4.438-5.922 5.922-5.922 15.52 0 21.44l16.23 16.23c2.961 2.961 6.841 4.441 10.72 4.441 3.879 0 7.757-1.48 10.72-4.441 5.918-5.918 5.918-15.52 0-21.43l-16.23-16.23c-2.959-2.959-6.838-4.438-10.72-4.438zm109.5 0c-3.879 0-7.758 1.479-10.72 4.438l-16.23 16.23c-5.918 5.918-5.918 15.52 0 21.43 2.961 2.961 6.839 4.441 10.72 4.441 3.879 0 7.761-1.48 10.72-4.441l16.23-16.23c5.922-5.918 5.921-15.51 3e-3 -21.44-2.961-2.959-6.84-4.438-10.72-4.438zm-54.76 52.04c-8.371 0-15.16 6.786-15.16 15.16v3.614c0 4.941-4.024 8.96-8.962 8.96-21.66 0-39.28 17.62-39.28 39.28l4e-3 24.04-169.5 324c-2.457 4.699-2.28 10.34 0.4658 14.88 2.746 4.539 7.663 7.308 12.96 7.308h342.5c5.301 0 10.22-2.769 12.97-7.308 2.746-4.535 2.925-10.18 0.4644-14.88l-169.5-324-5e-3 -24.03c0-4.941 4.019-8.96 8.96-8.96 21.66 0 39.28-17.62 39.28-39.28v-3.614c0-8.371-6.79-15.16-15.16-15.16zm-48.23 127.5 40.9 78.18-9.87 6.898-22.65-15.04c-5.078-3.375-11.69-3.371-16.77 0l-22.65 15.04-9.867-6.883zm-8e-3 100.9 22.87 15.18c5.187 3.445 11.96 3.368 17.07-0.2022l15.14-10.58 61.95 118.4h-234l61.95-118.4 15.14 10.57c2.605 1.816 5.641 2.73 8.676 2.73 2.922 0 5.843-0.8438 8.386-2.531zm-55.68 76.77c-7.93 0-15.53 6.968-15.16 15.16 0.3672 8.215 6.66 15.16 15.16 15.16 7.926 0 15.52-6.974 15.16-15.16-0.3672-8.211-6.661-15.16-15.16-15.16zm55.73 0c-7.93 0-15.52 6.968-15.16 15.16 0.3672 8.215 6.661 15.16 15.16 15.16 7.93 0 15.52-6.974 15.16-15.16-0.3711-8.211-6.664-15.16-15.16-15.16zm55.74 0c-7.93 0-15.53 6.968-15.16 15.16 0.3672 8.215 6.661 15.16 15.16 15.16 7.926 0 15.52-6.974 15.16-15.16-0.3672-8.211-6.659-15.16-15.16-15.16zm-188.7 76.38h265.8l13.32 25.47h-292.4z"/>
</svg>
