<svg width="20.2mm" height="11.9mm" version="1.1" viewBox="0 0 20.2 11.9" xmlns="http://www.w3.org/2000/svg">
 <g transform="translate(-46.6 -112)">
  <g aria-label="PB">
   <path transform="matrix(.265 0 0 .265 46.6 112)" d="m3.84 0c-1.54 0-2.56 0.363-3.07 1.09-0.512 0.683-0.768 1.62-0.768 2.82v39.6c0 0.512 0.107 0.874 0.32 1.09 0.256 0.171 0.64 0.256 1.15 0.256h6.72c0.64 0 1.05-0.0634 1.22-0.191 0.213-0.171 0.32-0.555 0.32-1.15v-14.9h8.51c3.58 0 6.44-0.555 8.58-1.66 2.18-1.11 3.82-2.43 4.93-3.97 1.15-1.58 1.9-3.18 2.24-4.8 0.341-1.66 0.512-3.05 0.512-4.16 0-2.05-0.341-3.92-1.02-5.63-0.683-1.71-1.69-3.18-3.01-4.42-1.28-1.24-2.86-2.2-4.74-2.88-1.83-0.725-3.9-1.09-6.21-1.09h-15.7zm41.3 0c-1.54 0-2.56 0.321-3.07 0.961s-0.768 1.64-0.768 3.01v37c0 1.37 0.256 2.37 0.768 3.01 0.512 0.597 1.54 0.895 3.07 0.895h16.1c2.13 0 4.12-0.319 5.95-0.959 1.88-0.683 3.5-1.62 4.87-2.82 1.41-1.19 2.5-2.62 3.26-4.29 0.811-1.66 1.21-3.52 1.21-5.57 0-1.07-0.127-2.15-0.383-3.26-0.256-1.11-0.662-2.13-1.22-3.07-0.555-0.981-1.28-1.86-2.18-2.62-0.853-0.811-1.88-1.45-3.07-1.92v-0.447c1.45-0.811 2.62-1.98 3.52-3.52 0.939-1.58 1.41-3.26 1.41-5.06 0-2.01-0.363-3.71-1.09-5.12-0.683-1.45-1.64-2.62-2.88-3.52-1.24-0.939-2.71-1.62-4.42-2.05-1.66-0.427-3.46-0.641-5.38-0.641h-15.7zm5.89 8.51h9.02c1.37 0 2.45 0.363 3.26 1.09 0.811 0.725 1.22 1.73 1.22 3.01 0 0.896-0.151 1.64-0.449 2.24-0.299 0.555-0.681 1-1.15 1.34-0.469 0.299-1 0.513-1.6 0.641-0.555 0.128-1.09 0.191-1.6 0.191h-8.7v-8.51zm-41.3 0.0645h8.32c1.28 0 2.32 0.214 3.13 0.641 0.853 0.384 1.52 0.895 1.98 1.54 0.512 0.597 0.853 1.26 1.02 1.98 0.171 0.683 0.256 1.32 0.256 1.92 0 1.71-0.511 3.16-1.54 4.35-1.02 1.15-2.62 1.73-4.8 1.73h-8.38v-12.2zm41.3 16.3h9.21c2.05 0 3.59 0.533 4.61 1.6 1.07 1.07 1.6 2.45 1.6 4.16 0 0.597-0.107 1.24-0.32 1.92-0.171 0.683-0.492 1.3-0.961 1.86-0.469 0.555-1.11 1.02-1.92 1.41-0.811 0.341-1.81 0.512-3.01 0.512h-9.21v-11.5z" fill="#ededf2"/>
  </g>
 </g>
</svg>
