<svg width="1105" height="278" version="1.1" xmlns="http://www.w3.org/2000/svg">
 <path d="m367 0c-0.187 0-0.327 0.0355-0.42 0.105-0.0933 0.0467-0.141 0.187-0.141 0.42v6.65h-6.47c-0.233 0-0.385 0.0591-0.455 0.176-0.0467 0.0933-0.0703 0.233-0.0703 0.42v1.82c0 0.21 0.0236 0.362 0.0703 0.455 0.07 0.07 0.222 0.105 0.455 0.105h6.47v6.69c0 0.233 0.0473 0.385 0.141 0.455 0.0933 0.0467 0.233 0.0703 0.42 0.0703h1.92c0.187 0 0.315-0.0236 0.385-0.0703 0.0933-0.07 0.141-0.222 0.141-0.455v-6.69h6.47c0.21 0 0.338-0.0355 0.385-0.105 0.07-0.0933 0.105-0.245 0.105-0.455v-1.82c0-0.187-0.0355-0.327-0.105-0.42-0.0467-0.117-0.175-0.176-0.385-0.176h-6.47v-6.65c0-0.233-0.0473-0.373-0.141-0.42-0.07-0.07-0.198-0.105-0.385-0.105zm-357 1.7c-0.117 0-0.205 0.0224-0.264 0.0664-0.0587 0.0293-0.0879 0.117-0.0879 0.264v4.18h-4.07c-0.147 0-0.243 0.036-0.287 0.109-0.0293 0.0587-0.043 0.146-0.043 0.264v1.14c0 0.132 0.0136 0.226 0.043 0.285 0.044 0.044 0.14 0.0664 0.287 0.0664h4.07v4.2c0 0.147 0.0292 0.241 0.0879 0.285 0.0587 0.0293 0.146 0.0449 0.264 0.0449h1.21c0.117 0 0.198-0.0156 0.242-0.0449 0.0587-0.044 0.0879-0.138 0.0879-0.285v-4.2h4.07c0.132 0 0.213-0.0224 0.242-0.0664 0.044-0.0587 0.0664-0.153 0.0664-0.285v-1.14c0-0.117-0.0224-0.205-0.0664-0.264-0.0293-0.0733-0.11-0.109-0.242-0.109h-4.07v-4.18c0-0.147-0.0292-0.234-0.0879-0.264-0.044-0.044-0.125-0.0664-0.242-0.0664zm678 5c-0.117 0-0.205 0.0224-0.264 0.0664-0.0587 0.0293-0.0879 0.117-0.0879 0.264v4.18h-4.07c-0.147 0-0.243 0.036-0.287 0.109-0.0293 0.0587-0.043 0.146-0.043 0.264v1.14c0 0.132 0.0136 0.226 0.043 0.285 0.044 0.044 0.14 0.0664 0.287 0.0664h4.07v4.2c0 0.147 0.0292 0.241 0.0879 0.285 0.0587 0.0293 0.146 0.0449 0.264 0.0449h1.21c0.117 0 0.198-0.0156 0.242-0.0449 0.0587-0.044 0.0879-0.138 0.0879-0.285v-4.2h4.07c0.132 0 0.213-0.0224 0.242-0.0664 0.044-0.0587 0.0664-0.153 0.0664-0.285v-1.14c0-0.117-0.0224-0.205-0.0664-0.264-0.0293-0.0733-0.11-0.109-0.242-0.109h-4.07v-4.18c0-0.147-0.0292-0.234-0.0879-0.264-0.044-0.044-0.125-0.0664-0.242-0.0664zm408 0.303c-0.187 0-0.327 0.0355-0.42 0.105-0.093 0.0467-0.141 0.187-0.141 0.42v6.65h-6.47c-0.233 0-0.385 0.0591-0.455 0.176-0.047 0.0933-0.07 0.233-0.07 0.42v1.82c0 0.21 0.024 0.362 0.07 0.455 0.07 0.07 0.222 0.105 0.455 0.105h6.47v6.69c0 0.233 0.047 0.385 0.141 0.455 0.093 0.0467 0.233 0.0703 0.42 0.0703h1.92c0.187 0 0.315-0.0236 0.385-0.0703 0.093-0.07 0.141-0.222 0.141-0.455v-6.69h6.47c0.21 0 0.338-0.0355 0.385-0.105 0.07-0.0933 0.105-0.245 0.105-0.455v-1.82c0-0.187-0.035-0.327-0.105-0.42-0.047-0.117-0.175-0.176-0.385-0.176h-6.47v-6.65c0-0.233-0.047-0.373-0.141-0.42-0.07-0.07-0.198-0.105-0.385-0.105zm-750 174c-0.117 0-0.205 0.0224-0.264 0.0664-0.0587 0.0293-0.0879 0.117-0.0879 0.264v4.18h-4.07c-0.147 0-0.243 0.036-0.287 0.109-0.0293 0.0587-0.043 0.146-0.043 0.264v1.14c0 0.132 0.0136 0.226 0.043 0.285 0.044 0.044 0.14 0.0664 0.287 0.0664h4.07v4.2c0 0.147 0.0292 0.241 0.0879 0.285 0.0587 0.0293 0.146 0.0449 0.264 0.0449h1.21c0.117 0 0.198-0.0156 0.242-0.0449 0.0587-0.044 0.0879-0.138 0.0879-0.285v-4.2h4.07c0.132 0 0.213-0.0224 0.242-0.0664 0.044-0.0587 0.0664-0.153 0.0664-0.285v-1.14c0-0.117-0.0224-0.205-0.0664-0.264-0.0293-0.0733-0.11-0.109-0.242-0.109h-4.07v-4.18c0-0.147-0.0292-0.234-0.0879-0.264-0.044-0.044-0.125-0.0664-0.242-0.0664zm359 60c-0.117 0-0.205 0.0224-0.264 0.0664-0.0587 0.0293-0.0879 0.117-0.0879 0.264v4.18h-4.07c-0.147 0-0.243 0.036-0.287 0.109-0.0293 0.0587-0.043 0.146-0.043 0.264v1.14c0 0.132 0.0136 0.226 0.043 0.285 0.044 0.044 0.14 0.0664 0.287 0.0664h4.07v4.2c0 0.147 0.0292 0.241 0.0879 0.285 0.0587 0.0293 0.146 0.0449 0.264 0.0449h1.21c0.117 0 0.198-0.0156 0.242-0.0449 0.0587-0.044 0.0879-0.138 0.0879-0.285v-4.2h4.07c0.132 0 0.213-0.0224 0.242-0.0664 0.044-0.0587 0.0664-0.153 0.0664-0.285v-1.14c0-0.117-0.0224-0.205-0.0664-0.264-0.0293-0.0733-0.11-0.109-0.242-0.109h-4.07v-4.18c0-0.147-0.0292-0.234-0.0879-0.264-0.044-0.044-0.125-0.0664-0.242-0.0664zm334 10c-0.117 0-0.205 0.0224-0.264 0.0664-0.059 0.0293-0.088 0.117-0.088 0.264v4.18h-4.07c-0.147 0-0.243 0.036-0.287 0.109-0.029 0.0587-0.043 0.146-0.043 0.264v1.14c0 0.132 0.014 0.226 0.043 0.285 0.044 0.044 0.14 0.0664 0.287 0.0664h4.07v4.2c0 0.147 0.029 0.241 0.088 0.285 0.059 0.0293 0.146 0.0449 0.264 0.0449h1.21c0.117 0 0.198-0.0156 0.242-0.0449 0.059-0.044 0.088-0.138 0.088-0.285v-4.2h4.07c0.132 0 0.213-0.0224 0.242-0.0664 0.044-0.0587 0.066-0.153 0.066-0.285v-1.14c0-0.117-0.023-0.205-0.066-0.264-0.029-0.0733-0.11-0.109-0.242-0.109h-4.07v-4.18c0-0.147-0.029-0.234-0.088-0.264-0.044-0.044-0.125-0.0664-0.242-0.0664zm-1031 10.3c-0.187 0-0.327 0.0355-0.42 0.105-0.0933 0.0467-0.141 0.187-0.141 0.42v6.65h-6.47c-0.233 0-0.385 0.0591-0.455 0.176-0.0467 0.0933-0.0703 0.233-0.0703 0.42v1.82c0 0.21 0.0236 0.362 0.0703 0.455 0.07 0.07 0.222 0.105 0.455 0.105h6.47v6.69c0 0.233 0.0473 0.385 0.141 0.455 0.0933 0.0467 0.233 0.0703 0.42 0.0703h1.92c0.187 0 0.315-0.0236 0.385-0.0703 0.0933-0.07 0.141-0.222 0.141-0.455v-6.69h6.47c0.21 0 0.338-0.0355 0.385-0.105 0.07-0.0933 0.105-0.245 0.105-0.455v-1.82c0-0.187-0.0355-0.327-0.105-0.42-0.0467-0.117-0.175-0.176-0.385-0.176h-6.47v-6.65c0-0.233-0.0473-0.373-0.141-0.42-0.07-0.07-0.198-0.105-0.385-0.105z" fill="#fff"/>
</svg>
